<svg xmlns="http://www.w3.org/2000/svg" width="32" height="32" viewBox="0 0 32 32"><defs><style>.a{fill:#fff;}</style></defs><path class="a" d="M16,0A16,16,0,1,0,32,16,16.018,16.018,0,0,0,16,0Zm0,29.091A13.091,13.091,0,1,1,29.091,16,13.106,13.106,0,0,1,16,29.091Z"/><path class="a" d="M146.865,70a1.864,1.864,0,1,0,1.863,1.864A1.866,1.866,0,0,0,146.865,70Z" transform="translate(-130.865 -63.176)"/><path class="a" d="M151.4,140a1.4,1.4,0,0,0-1.4,1.4v8.386a1.4,1.4,0,1,0,2.8,0V141.4A1.4,1.4,0,0,0,151.4,140Z" transform="translate(-135.398 -126.121)"/></svg>