<svg xmlns="http://www.w3.org/2000/svg" width="30" height="31" viewBox="0 0 30 31"><defs><style>.a{fill:#fff;stroke:#707070;opacity:0;}.b{fill:#24374c;}.c{stroke:none;}.d{fill:none;}</style></defs><g transform="translate(0.182 -0.409)"><g class="a" transform="translate(-0.182 0.409)"><rect class="c" width="30" height="31"/><rect class="d" x="0.5" y="0.5" width="29" height="30"/></g><g transform="translate(1.19 1.272)"><path class="b" d="M173.746,394.293H161.736a.432.432,0,0,0,0,.864h12.009a.432.432,0,0,0,0-.864Zm0,0" transform="translate(-152.082 -371.749)"/><path class="b" d="M173.746,341.215H161.736a.432.432,0,0,0,0,.864h12.009a.432.432,0,1,0,0-.864Zm0,0" transform="translate(-152.082 -321.706)"/><path class="b" d="M161.3,288.537a.432.432,0,0,0,.432.432h7.642a.432.432,0,1,0,0-.864h-7.642A.432.432,0,0,0,161.3,288.537Zm0,0" transform="translate(-152.082 -271.633)"/><path class="b" d="M26.224,5.668l-.779-.846V1.8a1.8,1.8,0,0,0-1.8-1.8H4.316a1.8,1.8,0,0,0-1.8,1.8V5.209h-.79A1.725,1.725,0,0,0,0,6.933v5.23a1.725,1.725,0,0,0,1.723,1.723h.79V25.939a1.8,1.8,0,0,0,1.8,1.8H5.3a1.753,1.753,0,0,0,1.738,1.536H25.634a1.754,1.754,0,0,0,1.753-1.751V8.859a3.541,3.541,0,0,0-1.163-3.191Zm.281,2.3H23.268a.889.889,0,0,1-.889-.886l0-3.757c.568.042.72.21,1.218.764.083.092.173.192.273.3l.826.9.009.01.88.955A2.475,2.475,0,0,1,26.5,7.97ZM3.377,1.8A.938.938,0,0,1,4.316.864H23.641a.938.938,0,0,1,.939.934V3.884l-.072-.078c-.1-.106-.186-.2-.266-.293A2.407,2.407,0,0,0,21.951,2.45H7.041A1.753,1.753,0,0,0,5.29,4.2V5.209H3.377ZM26.523,27.522a.889.889,0,0,1-.889.887H7.041a.888.888,0,0,1-.888-.887V21.261a.432.432,0,0,0-.864,0v5.612H4.316a.938.938,0,0,1-.939-.934V13.887H5.29V22.3a.432.432,0,0,0,.864,0V13.887h5.258a.432.432,0,0,0,0-.864H1.722a.86.86,0,0,1-.859-.859V6.933a.86.86,0,0,1,.859-.859H13.1a.861.861,0,0,1,.86.859v5.23a.861.861,0,0,1-.86.859H10.376a.432.432,0,1,0,0,.864H13.1a1.726,1.726,0,0,0,1.724-1.723V6.933A1.726,1.726,0,0,0,13.1,5.209H6.154V4.2a.888.888,0,0,1,.888-.887H21.518l0,3.769a1.754,1.754,0,0,0,1.753,1.751h3.254V27.522Zm0,0" transform="translate(0 0)"/><path class="b" d="M51.039,134.637H50a.441.441,0,0,0-.324.134.447.447,0,0,0-.133.329v3.06a.436.436,0,0,0,.131.321.441.441,0,0,0,.752-.31v-.887h.664a1.316,1.316,0,0,0,.969-.362,1.407,1.407,0,0,0-.022-1.914,1.39,1.39,0,0,0-1-.37Zm.321,1.715a.507.507,0,0,1-.37.158h-.561v-1.083H51a.49.49,0,0,1,.373.161.551.551,0,0,1,.15.389A.512.512,0,0,1,51.361,136.352Zm0,0" transform="translate(-46.714 -126.939)"/><path class="b" d="M111.222,135.766a1.7,1.7,0,0,0-.542-.678,2.073,2.073,0,0,0-1.253-.354h-.91a.428.428,0,0,0-.321.136.436.436,0,0,0-.131.31v3.032a.435.435,0,0,0,.125.321.485.485,0,0,0,.332.12h.98a1.837,1.837,0,0,0,1.275-.43,1.987,1.987,0,0,0,.637-1.541,2.177,2.177,0,0,0-.193-.917Zm-1,1.772a.953.953,0,0,1-.752.321h-.523v-2.325h.474a1.034,1.034,0,0,1,.793.31,1.176,1.176,0,0,1,.291.838A1.246,1.246,0,0,1,110.223,137.538Zm0,0" transform="translate(-101.887 -127.031)"/><path class="b" d="M177.036,138.626a.422.422,0,0,0,.313-.131.428.428,0,0,0,.128-.31v-1.171h.839a.41.41,0,0,0,.3-.117.391.391,0,0,0,0-.566.414.414,0,0,0-.3-.117h-.839v-.768h.991a.375.375,0,0,0,.283-.12.389.389,0,0,0,.114-.278.4.4,0,0,0-.117-.291.382.382,0,0,0-.28-.117h-1.427a.428.428,0,0,0-.321.136.443.443,0,0,0-.131.316v3.092a.415.415,0,0,0,.136.31A.437.437,0,0,0,177.036,138.626Zm0,0" transform="translate(-166.493 -126.943)"/></g></g></svg>