<svg xmlns="http://www.w3.org/2000/svg" viewBox="0 0 119.35 57.36"><defs><style>.cls-1{fill:#fffdfd;}.cls-2,.cls-3{fill:#5b5b5b;}.cls-3,.cls-4{fill-rule:evenodd;}.cls-4{fill:#fff;}</style></defs><g id="Layer_2" data-name="Layer 2"><g id="Layer_2-2" data-name="Layer 2"><circle class="cls-1" cx="90.68" cy="28.68" r="28.09"/><path class="cls-2" d="M90.68,57.36a28.68,28.68,0,1,1,28.67-28.68A28.71,28.71,0,0,1,90.68,57.36Zm0-56.2a27.52,27.52,0,1,0,27.51,27.52A27.56,27.56,0,0,0,90.68,1.16Z"/><path class="cls-3" d="M104.52,14.1a.84.84,0,0,1,.83.83v21a.83.83,0,0,1-.24.6l-7.57,7.6a.83.83,0,0,1-.6.24H82.66a.78.78,0,0,1-.57-.24.81.81,0,0,1-.26-.6V39.61a6.64,6.64,0,0,0,.89,0q.41,0,.78,0v3.06H96.11V35.92a.88.88,0,0,1,.84-.83h6.74V15.77H83.5v5c-.25,0-.5,0-.77,0s-.6,0-.9,0V14.94a.74.74,0,0,1,.26-.58.77.77,0,0,1,.58-.26Z"/><path class="cls-3" d="M95,27.32a.86.86,0,0,1,.84-.82h5.08a.78.78,0,0,1,.6.24l.07.08a.82.82,0,0,1,.17.5.87.87,0,0,1-.17.52.27.27,0,0,1-.07.08.83.83,0,0,1-.6.24H95.79a.78.78,0,0,1-.58-.24A.83.83,0,0,1,95,27.32Z"/><path class="cls-3" d="M91.87,24.43a.82.82,0,0,1-.25-.59.87.87,0,0,1,.84-.84h8.41a.79.79,0,0,1,.6.25l.07.08a.71.71,0,0,1,.17.5.87.87,0,0,1-.17.52.27.27,0,0,1-.07.08.87.87,0,0,1-.6.24H92.46A.82.82,0,0,1,91.87,24.43Z"/><path class="cls-3" d="M101.71,20.39a.82.82,0,0,1-.79.83H92.45a.75.75,0,0,1-.58-.23.82.82,0,0,1-.25-.59.85.85,0,0,1,.84-.84h8.41a.77.77,0,0,1,.6.25A.81.81,0,0,1,101.71,20.39Z"/><path class="cls-3" d="M88.49,24.4v0a8.25,8.25,0,0,0-11.62,0v0a8.32,8.32,0,0,0-1.46,9.66l-5.06,5a3.07,3.07,0,0,0,4.32,4.37l0,0L80,38.13a.52.52,0,0,1,.11-.1,8.3,8.3,0,0,0,2.57.39,8.21,8.21,0,0,0,5.82-14Zm-2,9.57h0A5.35,5.35,0,1,1,88,30.21,5.12,5.12,0,0,1,86.46,34Z"/><circle class="cls-2" cx="28.68" cy="28.68" r="28.09"/><path class="cls-2" d="M28.68,57.36A28.68,28.68,0,1,1,57.35,28.68,28.71,28.71,0,0,1,28.68,57.36Zm0-56.2A27.52,27.52,0,1,0,56.19,28.68,27.56,27.56,0,0,0,28.68,1.16Z"/><path class="cls-4" d="M42.52,14.1a.84.84,0,0,1,.83.83v21a.83.83,0,0,1-.24.6l-7.57,7.6a.83.83,0,0,1-.6.24H20.66a.78.78,0,0,1-.57-.24.81.81,0,0,1-.26-.6V39.61a6.64,6.64,0,0,0,.89,0q.41,0,.78,0v3.06H34.11V35.92a.88.88,0,0,1,.84-.83h6.74V15.77H21.5v5c-.25,0-.5,0-.77,0s-.6,0-.9,0V14.94a.74.74,0,0,1,.26-.58.77.77,0,0,1,.58-.26Z"/><path class="cls-4" d="M33,27.32a.86.86,0,0,1,.84-.82h5.08a.78.78,0,0,1,.6.24l.07.08a.82.82,0,0,1,.17.5.87.87,0,0,1-.17.52.27.27,0,0,1-.07.08.83.83,0,0,1-.6.24H33.79a.78.78,0,0,1-.58-.24A.83.83,0,0,1,33,27.32Z"/><path class="cls-4" d="M29.87,24.43a.82.82,0,0,1-.25-.59.87.87,0,0,1,.84-.84h8.41a.79.79,0,0,1,.6.25l.07.08a.71.71,0,0,1,.17.5.87.87,0,0,1-.17.52.27.27,0,0,1-.07.08.87.87,0,0,1-.6.24H30.46A.82.82,0,0,1,29.87,24.43Z"/><path class="cls-4" d="M39.71,20.39a.82.82,0,0,1-.79.83H30.45a.75.75,0,0,1-.58-.23.82.82,0,0,1-.25-.59.85.85,0,0,1,.84-.84h8.41a.77.77,0,0,1,.6.25A.81.81,0,0,1,39.71,20.39Z"/><path class="cls-4" d="M26.49,24.4v0a8.25,8.25,0,0,0-11.62,0v0a8.32,8.32,0,0,0-1.46,9.66l-5.06,5a3.07,3.07,0,0,0,4.32,4.37l0,0L18,38.13a.52.52,0,0,1,.11-.1,8.3,8.3,0,0,0,2.57.39,8.21,8.21,0,0,0,5.82-14Zm-2,9.57h0A5.35,5.35,0,1,1,26,30.21,5.12,5.12,0,0,1,24.46,34Z"/></g></g></svg>