<svg xmlns="http://www.w3.org/2000/svg" width="64" height="31" viewBox="0 0 64 31"><defs><style>.a{fill:#fff;}</style></defs><g transform="translate(322 -365.983)"><g transform="translate(-322 365.983)"><g transform="translate(0 0)"><path class="a" d="M15.5,31c-.133,0-.267,0-.4-.005s-.266-.008-.4-.015-.264-.015-.395-.025-.262-.022-.392-.035-.26-.028-.389-.045-.258-.034-.386-.054-.256-.041-.383-.064-.254-.047-.38-.073-.252-.053-.377-.082-.25-.059-.373-.091-.247-.065-.37-.1-.245-.071-.366-.109-.242-.077-.362-.118-.24-.083-.358-.126-.237-.089-.354-.135-.234-.094-.35-.143-.232-.1-.346-.151-.229-.105-.341-.159-.225-.11-.337-.167-.222-.116-.332-.175-.219-.121-.327-.183-.216-.126-.322-.19-.213-.131-.317-.2-.209-.136-.312-.205-.206-.141-.307-.213-.2-.146-.3-.22-.2-.15-.3-.227-.195-.155-.29-.234-.191-.159-.284-.24-.187-.164-.278-.247-.183-.168-.272-.253-.179-.173-.266-.26-.175-.177-.26-.266-.17-.181-.253-.272-.166-.185-.247-.278-.162-.189-.24-.284-.157-.193-.234-.29-.153-.2-.227-.3-.148-.2-.22-.3-.143-.2-.213-.307-.138-.208-.205-.312-.134-.211-.2-.317-.129-.215-.19-.322S1.93,23,1.871,22.888s-.118-.221-.175-.332-.113-.224-.167-.337-.108-.227-.159-.341-.1-.23-.151-.346-.1-.233-.143-.35-.091-.236-.135-.354-.086-.239-.126-.358S.734,20.23.7,20.109s-.074-.244-.109-.366-.068-.247-.1-.37S.426,19.125.4,19s-.056-.251-.082-.377-.05-.254-.073-.38S.2,17.988.179,17.86.141,17.6.125,17.474s-.031-.26-.045-.389-.025-.262-.035-.392S.027,16.429.02,16.3s-.012-.265-.015-.4S0,15.633,0,15.5s0-.267.005-.4.008-.266.015-.4.015-.264.025-.395.022-.262.035-.392.028-.26.045-.389.035-.258.054-.386.041-.256.064-.383.047-.254.073-.38S.368,12.124.4,12s.059-.25.091-.373.065-.247.1-.37.071-.245.109-.366.077-.242.118-.362.083-.24.126-.358.088-.237.135-.354.094-.234.143-.35.1-.231.151-.346.1-.228.159-.341.11-.225.167-.337.116-.222.175-.332.121-.219.183-.327.126-.216.19-.322.131-.213.2-.317.136-.209.205-.312.141-.206.213-.307.146-.2.22-.3.15-.2.227-.3.155-.195.234-.29.159-.191.24-.284.164-.187.247-.278.168-.183.253-.272.173-.179.26-.266.177-.175.266-.26.181-.17.272-.253.185-.166.278-.247.189-.162.284-.24.193-.157.29-.234.2-.153.3-.227.2-.148.3-.22.2-.143.307-.213.208-.138.312-.205.211-.134.317-.2.215-.129.322-.19S8,1.93,8.112,1.871s.221-.118.332-.175.224-.113.337-.167.227-.108.341-.159.23-.1.346-.151.233-.1.35-.143.236-.091.354-.135.239-.086.358-.126.241-.08.362-.118.244-.074.366-.109.247-.068.37-.1S11.875.426,12,.4s.251-.056.377-.082.254-.05.38-.073S13.012.2,13.14.179s.258-.038.386-.054.26-.031.389-.045.262-.025.392-.035S14.571.027,14.7.02s.265-.012.4-.015S15.367,0,15.5,0s.267,0,.4.005.266.008.4.015.264.015.395.025.262.022.392.035.26.028.389.045.258.035.386.054.256.041.383.064.254.047.38.073S18.876.368,19,.4s.25.059.373.091.247.065.37.1.245.071.366.109.242.077.362.118.24.083.358.126.237.088.354.135.234.094.35.143.231.1.346.151.228.1.341.159.225.11.337.167.222.116.332.175.219.121.327.183.216.126.322.19.213.131.317.2.209.136.312.205.206.141.307.213.2.146.3.22.2.15.3.227.195.155.29.234.191.159.284.24.187.164.278.247.183.168.272.253.179.173.266.26.175.177.26.266.17.181.253.272.166.185.247.278.162.189.24.284.157.193.234.29.153.2.227.3.148.2.22.3.143.2.213.307.138.208.205.312.134.211.2.317.129.214.19.322.123.218.183.327.118.221.175.332.113.224.167.337.108.227.159.341.1.23.151.346.1.233.143.35.091.236.135.354.086.239.126.358.08.241.118.362.074.244.109.366.068.247.1.37.062.249.091.373.056.251.082.377.05.254.073.38.044.256.064.383.038.258.054.386.031.26.045.389.025.262.035.392.018.264.025.395.012.265.015.4.005.267.005.4,0,.267-.005.4-.008.266-.015.4-.015.264-.025.395-.022.262-.035.392-.028.26-.045.389-.034.258-.054.386-.041.256-.064.383-.047.254-.073.38-.053.252-.082.377-.059.25-.091.373-.065.247-.1.37-.071.245-.109.366-.077.242-.118.362-.083.24-.126.358-.089.237-.135.354-.094.234-.143.35-.1.232-.151.346-.105.229-.159.341-.11.225-.167.337-.116.222-.175.332-.121.219-.183.327-.126.216-.19.322-.131.213-.2.317-.136.209-.205.312-.141.206-.213.307-.146.2-.22.3-.15.2-.227.3-.155.195-.234.29-.159.191-.24.284-.164.187-.247.278-.168.183-.253.272-.173.179-.26.266-.177.175-.266.26-.181.17-.272.253-.185.166-.278.247-.189.162-.284.24-.193.157-.29.234-.2.153-.3.227-.2.148-.3.22-.2.143-.307.213-.208.138-.312.205-.211.134-.317.2-.215.129-.322.19-.218.123-.327.183-.221.118-.332.175-.224.113-.337.167-.227.108-.341.159-.23.1-.346.151-.233.1-.35.143-.236.091-.354.135-.239.086-.358.126-.241.08-.362.118-.244.074-.366.109-.247.068-.37.1-.249.062-.373.091-.251.056-.377.082-.254.05-.38.073-.256.044-.383.064-.258.038-.386.054-.26.031-.389.045-.262.025-.392.035-.264.018-.395.025-.265.012-.4.015S15.633,31,15.5,31Zm0-29.9c-.123,0-.248,0-.372,0s-.247.008-.369.014-.245.014-.367.023-.244.02-.364.032-.242.026-.362.041-.24.032-.359.05-.238.038-.356.059-.236.044-.353.068-.234.049-.35.076-.232.055-.347.085-.23.061-.343.093-.228.066-.34.1c-.224.07-.449.146-.669.226s-.439.167-.654.258-.428.187-.638.288-.417.207-.621.318-.406.227-.6.347-.393.246-.584.374-.38.264-.564.4-.367.281-.544.427-.353.3-.522.452-.338.315-.5.477-.322.33-.477.5-.307.345-.452.522-.29.36-.427.544-.273.374-.4.564-.255.387-.374.584-.237.4-.347.6-.217.412-.318.621-.2.424-.288.638-.178.435-.258.654-.157.445-.226.669c-.035.112-.069.227-.1.34s-.064.229-.093.343-.058.231-.085.347-.052.234-.076.35-.047.235-.068.353-.041.238-.059.356-.035.239-.05.359-.029.241-.041.362-.023.243-.032.364-.017.245-.023.367-.011.247-.014.369,0,.248,0,.372,0,.248,0,.372.008.247.014.369.014.245.023.367.02.244.032.364.026.242.041.362.032.24.05.359.038.238.059.356.044.236.068.353.049.234.076.35.055.232.085.347.061.23.093.343.066.227.1.34c.07.224.146.449.226.669s.167.439.258.654.187.428.288.638.207.417.318.621.227.406.347.6.245.393.374.584.264.38.4.564.281.367.427.544.3.353.452.522.315.338.477.5.33.322.5.477.345.307.522.452.36.29.544.427.374.273.564.4.387.255.584.374.4.237.6.347.412.218.621.318.424.2.638.288.435.178.654.258.445.157.669.226c.112.035.227.069.34.1s.229.064.343.093.231.058.347.085.234.052.35.076.235.047.353.068.238.041.356.059.239.035.359.05.241.029.362.041.243.023.364.032.245.017.367.023.247.011.369.014.248,0,.372,0,.248,0,.372,0,.247-.008.369-.014.245-.014.367-.023.244-.02.364-.032.242-.026.362-.041.24-.032.359-.05.238-.038.356-.059.236-.044.353-.068.234-.049.35-.076.232-.055.347-.085.23-.061.343-.093.227-.066.34-.1c.224-.07.449-.146.669-.226s.439-.167.654-.258.428-.187.638-.288.417-.207.621-.318.406-.227.6-.347.393-.245.584-.374.38-.264.564-.4.367-.281.544-.427.353-.3.522-.452.338-.315.5-.477.322-.33.477-.5.307-.345.452-.522.29-.36.427-.544.273-.374.4-.564.255-.387.374-.584.237-.4.347-.6.218-.412.318-.621.2-.424.288-.638.178-.435.258-.654.157-.445.226-.669c.035-.112.069-.227.1-.34s.064-.229.093-.343.058-.231.085-.347.052-.234.076-.35.047-.235.068-.353.041-.238.059-.356.035-.239.05-.359.029-.241.041-.362.023-.243.032-.364.017-.245.023-.367.011-.247.014-.369,0-.248,0-.372,0-.248,0-.372-.008-.247-.014-.369-.014-.245-.023-.367-.02-.244-.032-.364-.026-.242-.041-.362-.032-.24-.05-.359-.038-.238-.059-.356-.044-.236-.068-.353-.049-.234-.076-.35-.055-.232-.085-.347-.061-.23-.093-.343-.066-.228-.1-.34c-.07-.224-.146-.449-.226-.669s-.167-.439-.258-.654-.187-.428-.288-.638-.207-.417-.318-.621-.227-.406-.347-.6-.246-.393-.374-.584-.264-.38-.4-.564-.281-.367-.427-.544-.3-.353-.452-.522-.315-.338-.477-.5-.33-.323-.5-.477-.345-.307-.522-.452-.36-.29-.544-.427-.374-.273-.564-.4-.387-.255-.584-.374-.4-.237-.6-.347-.412-.217-.621-.318-.424-.2-.638-.288-.435-.178-.654-.258-.445-.157-.669-.226c-.112-.035-.227-.069-.34-.1s-.229-.064-.343-.093-.231-.058-.347-.085-.234-.052-.35-.076-.235-.047-.353-.068-.238-.041-.356-.059-.239-.035-.359-.05-.241-.029-.362-.041-.243-.023-.364-.032-.245-.017-.367-.023-.247-.011-.369-.014S15.623,1.1,15.5,1.1Z"/><g transform="translate(11.746 6.424)"><g transform="translate(0 0)"><path class="a" d="M16.412,18.116c.5-1.905,1.1-3.811,1.7-5.816-1.7.3-3.309.5-4.914.8-.1,0-.2.3-.3.4,1.4.2,1.6.5,1.2,1.805,0,.1,0,.1-.1.2-.6,2.206-1.3,4.513-1.905,6.719-.4,1.6.4,2.507,2.006,2.407a2.36,2.36,0,0,0,.8-.2,6.288,6.288,0,0,0,2.908-2.908c.1-.1-.1-.3-.1-.5-.6.7-1,1.2-1.5,1.7-.1.1-.4.2-.5.1a.766.766,0,0,1-.2-.5.9.9,0,0,1,.1-.5A22.151,22.151,0,0,1,16.412,18.116Z" transform="translate(-11.998 -6.534)"/><path class="a" d="M17.305,6.5a1.905,1.905,0,1,0,1.905,1.905A1.9,1.9,0,0,0,17.305,6.5Z" transform="translate(-11.999 -6.5)"/></g></g></g><path class="a" d="M15.5,31A15.5,15.5,0,0,1,4.54,4.54,15.5,15.5,0,0,1,26.46,26.46,15.4,15.4,0,0,1,15.5,31ZM12.965,12.989c-.06,0-.121.11-.18.216a.928.928,0,0,1-.121.186c.778.111,1.127.247,1.287.5s.132.611-.083,1.307c0,.1,0,.1-.1.2-.3,1.1-.632,2.248-.952,3.356s-.654,2.263-.956,3.37a2.06,2.06,0,0,0,.217,1.8,1.882,1.882,0,0,0,1.553.614c.072,0,.15,0,.238-.008a1.749,1.749,0,0,0,.626-.138c.056-.02.114-.041.177-.062a6.214,6.214,0,0,0,2.911-2.911c.057-.057.018-.145-.027-.247a.665.665,0,0,1-.073-.255c-.142.166-.271.318-.4.466-.406.479-.726.857-1.109,1.241a.624.624,0,0,1-.373.141.178.178,0,0,1-.13-.041.764.764,0,0,1-.2-.5.9.9,0,0,1,.1-.5,15.586,15.586,0,0,1,.58-2.869c.075-.277.152-.564.222-.845.385-1.464.823-2.908,1.287-4.436q.208-.687.419-1.387c-.782.138-1.55.256-2.293.37-.9.139-1.756.27-2.626.433h0Zm4.106-6.575a1.907,1.907,0,1,0,1.908,1.908A1.91,1.91,0,0,0,17.071,6.414Z" transform="translate(33)"/></g></g></svg>