<?xml version="1.0" encoding="utf-8"?>
<!-- Generator: Adobe Illustrator 24.0.1, SVG Export Plug-In . SVG Version: 6.00 Build 0)  -->
<svg version="1.1" id="Layer_1" xmlns="http://www.w3.org/2000/svg" xmlns:xlink="http://www.w3.org/1999/xlink" x="0px" y="0px"
	 viewBox="0 0 68 74" style="enable-background:new 0 0 68 74;" xml:space="preserve">
<style type="text/css">
	.st0{enable-background:new    ;}
	.st1{fill:#414141;}
	.st2{fill:none;stroke:#414141;stroke-width:4;stroke-linecap:round;}
</style>
<g class="st0">
	<path class="st1" d="M7.2,69.7V54.9c0-0.2,0.1-0.3,0.3-0.3h1.8c0.2,0,0.3,0.1,0.4,0.2L15,67.7l5.3-12.9c0.1-0.2,0.2-0.2,0.4-0.2
		h1.8c0.2,0,0.3,0.1,0.3,0.3v14.8c0,0.2-0.1,0.3-0.3,0.3h-1.4c-0.2,0-0.3-0.1-0.3-0.3V58.2l-0.3,1l-4.4,10.6C16,70,15.9,70,15.7,70
		h-1.4c-0.2,0-0.3-0.1-0.4-0.2L9.6,59.2l-0.3-1v11.5C9.3,69.9,9.2,70,9,70H7.5C7.3,70,7.2,69.9,7.2,69.7z"/>
	<path class="st1" d="M25.7,64.6c0-3.2,2.2-5.6,5.5-5.6c3.2,0,5.1,2.4,5.1,5.1c0,0.9-0.2,1.3-0.9,1.3h-7.7c0.2,1.9,1.6,3.3,4,3.3
		c1.2,0,2.1-0.3,2.9-0.9c0.1-0.1,0.3-0.1,0.4,0l0.5,0.7c0.2,0.2,0.1,0.3-0.1,0.5c-0.9,0.9-2.3,1.4-3.9,1.4
		C28,70.2,25.7,67.7,25.7,64.6z M34.5,63.8c-0.1-1.9-1.4-3.2-3.3-3.2c-1.9,0-3.3,1.2-3.5,3.2H34.5z"/>
	<path class="st1" d="M38.8,69.7V59.5c0-0.2,0.1-0.3,0.3-0.3h1.3c0.2,0,0.3,0.1,0.3,0.3l0.1,1.4c0.6-1.1,1.8-2,3.5-2
		c2.3,0,3.9,1.6,3.9,4.4v6.3c0,0.2-0.1,0.3-0.3,0.3h-1.4c-0.2,0-0.3-0.1-0.3-0.3v-6c0-1.8-0.9-2.9-2.6-2.9s-2.9,1.1-2.9,2.9v6
		c0,0.2-0.1,0.3-0.3,0.3H39C38.9,70,38.8,69.9,38.8,69.7z"/>
	<path class="st1" d="M51.3,65.8v-6.3c0-0.2,0.1-0.3,0.3-0.3H53c0.2,0,0.3,0.1,0.3,0.3v6c0,1.8,0.9,2.9,2.6,2.9s2.9-1.1,2.9-2.9v-6
		c0-0.2,0.1-0.3,0.3-0.3h1.4c0.2,0,0.3,0.1,0.3,0.3v10.2c0,0.2-0.1,0.3-0.3,0.3h-1.3c-0.2,0-0.3-0.1-0.3-0.3l-0.1-1.4
		c-0.6,1.1-1.8,2-3.5,2C53,70.2,51.3,68.7,51.3,65.8z"/>
</g>
<g id="Component_16_69" transform="translate(1.5 1.5)">
	<g id="Group_19" transform="translate(-1818.5 -37)">
		<line id="Line_1" class="st2" x1="1822.4" y1="39.9" x2="1879.6" y2="39.9"/>
		<line id="Line_2" class="st2" x1="1822.4" y1="54.7" x2="1879.6" y2="54.7"/>
		<line id="Line_3" class="st2" x1="1822.4" y1="69.5" x2="1879.6" y2="69.5"/>
	</g>
</g>
</svg>
