<svg xmlns="http://www.w3.org/2000/svg" xmlns:xlink="http://www.w3.org/1999/xlink" width="42.058" height="36.315" viewBox="0 0 42.058 36.315">
  <defs>
    <clipPath id="clip-path">
      <rect id="Rectangle_12" data-name="Rectangle 12" width="42.058" height="36.315" fill="none" stroke="#414141" stroke-width="3"/>
    </clipPath>
  </defs>
  <g id="Group_125" data-name="Group 125" transform="translate(2 2)">
    <g id="Mask_Group_11" data-name="Mask Group 11" transform="translate(-2 -2)" clip-path="url(#clip-path)">
      <path id="Path_5" data-name="Path 5" d="M17.129,1.316,7.7,11.841a2.563,2.563,0,0,1-1.91.853H1.778A1.278,1.278,0,0,0,.5,13.973v7.062a1.278,1.278,0,0,0,1.278,1.278H5.793a2.564,2.564,0,0,1,1.91.854l9.426,10.525a.673.673,0,0,0,1.174-.449V1.765A.673.673,0,0,0,17.129,1.316Z" transform="translate(1.06 0.838)" fill="none" stroke="#414141" stroke-linecap="round" stroke-linejoin="round" stroke-width="3"/>
      <path id="Path_32" data-name="Path 32" d="M21.722,5.742,35.373,19.394" transform="translate(3.594 5.59)" fill="none" stroke="#414141" stroke-linecap="round" stroke-width="3"/>
      <path id="Path_33" data-name="Path 33" d="M0,0,13.652,13.651" transform="translate(38.967 11.332) rotate(90)" fill="none" stroke="#414141" stroke-linecap="round" stroke-width="3"/>
    </g>
  </g>
</svg>
