<?xml version="1.0" encoding="utf-8"?>
<!-- Generator: Adobe Illustrator 24.0.1, SVG Export Plug-In . SVG Version: 6.00 Build 0)  -->
<svg version="1.1" id="Layer_1" xmlns="http://www.w3.org/2000/svg" xmlns:xlink="http://www.w3.org/1999/xlink" x="0px" y="0px"
	 viewBox="0 0 52 64.2" style="enable-background:new 0 0 52 64.2;" xml:space="preserve">
<style type="text/css">
	.st0{enable-background:new    ;}
	.st1{fill:#1E1E1E;}
	.st2{fill:none;stroke:#1E1E1E;stroke-width:3;stroke-linecap:round;stroke-linejoin:round;}
</style>
<g class="st0">
	<path class="st1" d="M11.5,59.7L5.6,48.8v10.8c0,0.2-0.1,0.3-0.3,0.3H2.6c-0.2,0-0.3-0.1-0.3-0.3V43.7c0-0.2,0.1-0.3,0.3-0.3h3.1
		c0.2,0,0.3,0.1,0.4,0.2l5.9,10.9V43.7c0-0.2,0.1-0.3,0.3-0.3h2.7c0.2,0,0.3,0.1,0.3,0.3v15.9c0,0.2-0.1,0.3-0.3,0.3H12
		C11.7,59.9,11.6,59.9,11.5,59.7z"/>
	<path class="st1" d="M17.9,54.1c0-3.5,2.4-6,5.9-6s5.6,2.6,5.6,5.5c0,1.2-0.2,1.7-1.3,1.7H21c0.3,1.5,1.6,2.3,3.5,2.3
		c0.9,0,1.7-0.2,2.7-0.8c0.2-0.1,0.3-0.1,0.4,0.1l0.9,1.2c0.1,0.2,0.1,0.3-0.1,0.5c-1,1-2.5,1.5-4.1,1.5
		C20.5,60.2,17.9,57.6,17.9,54.1z M26.5,53.1c-0.2-1.5-1.2-2.4-2.6-2.4s-2.6,0.8-2.8,2.4H26.5z"/>
	<path class="st1" d="M30.3,59.5l3.6-5.5l-3.3-5.3c-0.1-0.2,0-0.4,0.2-0.4h2.8c0.2,0,0.3,0.1,0.4,0.2l1.8,3.1l1.8-3.1
		c0.1-0.2,0.2-0.2,0.4-0.2h2.8c0.3,0,0.4,0.2,0.2,0.4L37.8,54l3.5,5.5c0.2,0.2,0,0.4-0.2,0.4h-2.8c-0.2,0-0.3-0.1-0.4-0.2l-1.9-3.3
		l-2.1,3.3c-0.1,0.2-0.2,0.2-0.4,0.2h-2.8C30.3,59.9,30.2,59.8,30.3,59.5z"/>
	<path class="st1" d="M44.4,56.7v-5.8h-1.5c-0.2,0-0.3-0.1-0.3-0.3v-1.8c0-0.2,0.1-0.3,0.3-0.3h1.5v-2.8c0-0.2,0.1-0.3,0.3-0.3h2.6
		c0.2,0,0.3,0.1,0.3,0.3v2.7h1.8c0.2,0,0.3,0.1,0.3,0.3v1.8c0,0.2-0.1,0.3-0.3,0.3h-1.8v5.6c0,0.6,0.4,1,1,1c0.2,0,0.4,0,0.8,0
		c0.2,0,0.4,0.1,0.4,0.3v1.7c0,0.5-1.2,0.6-1.9,0.6C46,60.1,44.4,59.3,44.4,56.7z"/>
</g>
<g>
	<g id="Group_14_1_" transform="translate(1709.225 1027.213) rotate(180)">
		<g>
			<g id="Group_13_1_" transform="translate(-2 -2)">
				<path id="Path_9_1_" class="st2" d="M1694.8,996.8l-15.2,15.2l15.2,15.2"/>
			</g>
		</g>
	</g>
	<g id="Group_72" transform="translate(1697.225 1027.213) rotate(180)">
		<g>
			<g id="Group_13-2" transform="translate(-2 -2)">
				<path id="Path_9-2" class="st2" d="M1670.8,996.8l-15.2,15.2l15.2,15.2"/>
			</g>
		</g>
	</g>
</g>
</svg>
