<svg xmlns="http://www.w3.org/2000/svg" xmlns:xlink="http://www.w3.org/1999/xlink" width="698" height="176" viewBox="0 0 698 176">
  <defs>
    <filter id="Rectangle_19" x="0" y="43" width="161" height="88" filterUnits="userSpaceOnUse">
      <feOffset dy="3" input="SourceAlpha"/>
      <feGaussianBlur stdDeviation="3" result="blur"/>
      <feFlood flood-opacity="0.161"/>
      <feComposite operator="in" in2="blur"/>
      <feComposite in="SourceGraphic"/>
    </filter>
    <clipPath id="clip-path">
      <rect id="Rectangle_67" data-name="Rectangle 67" width="38.961" height="37.832" fill="none" stroke="#626262" stroke-width="2"/>
    </clipPath>
    <filter id="Rectangle_21" x="146" y="42" width="552" height="89" filterUnits="userSpaceOnUse">
      <feOffset dy="3" input="SourceAlpha"/>
      <feGaussianBlur stdDeviation="3" result="blur-2"/>
      <feFlood flood-opacity="0.161"/>
      <feComposite operator="in" in2="blur-2"/>
      <feComposite in="SourceGraphic"/>
    </filter>
    <filter id="Ellipse_4" x="66" y="0" width="177" height="176" filterUnits="userSpaceOnUse">
      <feOffset dy="5" input="SourceAlpha"/>
      <feGaussianBlur stdDeviation="3" result="blur-3"/>
      <feFlood flood-opacity="0.161"/>
      <feComposite operator="in" in2="blur-3"/>
      <feComposite in="SourceGraphic"/>
    </filter>
    <filter id="Ellipse_5" x="94.994" y="26.353" width="120.126" height="120.126" filterUnits="userSpaceOnUse">
      <feOffset dy="3" input="SourceAlpha"/>
      <feGaussianBlur stdDeviation="3" result="blur-4"/>
      <feFlood flood-opacity="0.161"/>
      <feComposite operator="in" in2="blur-4"/>
      <feComposite in="SourceGraphic"/>
    </filter>
  </defs>
  <g id="Component_24_6" data-name="Component 24 – 6" transform="translate(9 8)">
    <g id="Group_57" data-name="Group 57" transform="translate(-48 -212)">
      <g id="Group_52" data-name="Group 52" transform="translate(48 252.808)">
        <g transform="matrix(1, 0, 0, 1, -9, -48.81)" filter="url(#Rectangle_19)">
          <rect id="Rectangle_19-2" data-name="Rectangle 19" width="143" height="70" rx="30" transform="translate(9 49)" fill="#fff"/>
        </g>
      </g>
      <g id="Group_84" data-name="Group 84" transform="translate(73.773 269.33)">
        <g id="Group_72" data-name="Group 72" transform="translate(-2 -2)" clip-path="url(#clip-path)">
          <path id="Path_26" data-name="Path 26" d="M20.052,42.886c.421,0,.841.009,1.262,0a.718.718,0,0,0,.771-.9c-.13-1.158-.262-2.317-.382-3.477a.393.393,0,0,1,.108-.29,2.69,2.69,0,0,0-2.338-4.677,2.695,2.695,0,0,0-1.14,4.659.461.461,0,0,1,.123.342c-.116,1.15-.248,2.3-.376,3.446a.718.718,0,0,0,.775.9C19.253,42.895,19.652,42.886,20.052,42.886Z" transform="translate(-5.655 -12.815)" fill="none" stroke="#626262" stroke-width="2"/>
          <path id="Path_27" data-name="Path 27" d="M34.715,8.814v1c-.021.063-.044.125-.06.188a2.436,2.436,0,0,1-4.817-.486c-.013-.244-.033-.489-.068-.731a4.134,4.134,0,0,0-8.2.823c-.007,1.158,0,2.316,0,3.474,0,.106.011.212.017.331h.808A2,2,0,0,1,24.6,15.626q0,7.866,0,15.732a2.976,2.976,0,0,1-.081.759A1.986,1.986,0,0,1,22.4,33.585q-9.837,0-19.673,0A2.011,2.011,0,0,1,.512,31.369c0-5.244.017-10.488-.012-15.732A2.114,2.114,0,0,1,2.746,13.4c4.509.036,9.018.013,13.527.013h.412V13.01c0-1.113-.033-2.228.012-3.34a11.562,11.562,0,0,1,.272-2.312,9,9,0,0,1,17.466-.047C34.558,7.8,34.623,8.313,34.715,8.814Z" transform="translate(1.873 1.873)" fill="none" stroke="#626262" stroke-width="2"/>
        </g>
      </g>
    </g>
    <g id="Group_46" data-name="Group 46" transform="translate(146 40.423)">
      <g transform="matrix(1, 0, 0, 1, -155, -48.42)" filter="url(#Rectangle_21)">
        <rect id="Rectangle_21-2" data-name="Rectangle 21" width="534" height="71" rx="30" transform="translate(155 48)" fill="#fb6464"/>
      </g>
      <text id="Blood_Pressure" data-name="Blood Pressure" transform="translate(97 51.577)" fill="#fff" font-size="42" font-family="GreycliffCF-Bold, Greycliff CF" font-weight="700"><tspan x="0" y="0">Blood Pressure</tspan></text>
    </g>
    <g id="Group_33" data-name="Group 33" transform="translate(70.273 -0.368)">
      <g transform="matrix(1, 0, 0, 1, -79.27, -7.63)" filter="url(#Ellipse_4)">
        <ellipse id="Ellipse_4-2" data-name="Ellipse 4" cx="75.5" cy="75" rx="75.5" ry="75" transform="translate(79 8)" fill="#fff" stroke="#fb6464" stroke-width="8"/>
      </g>
      <g transform="matrix(1, 0, 0, 1, -79.27, -7.63)" filter="url(#Ellipse_5)">
        <circle id="Ellipse_5-2" data-name="Ellipse 5" cx="51.063" cy="51.063" r="51.063" transform="translate(103.99 32.35)" fill="#fb6464"/>
      </g>
      <text id="B" transform="translate(74.9 99.205)" fill="#fff" font-size="64" font-family="GreycliffCF-Bold, Greycliff CF" font-weight="700"><tspan x="-18" y="0">B</tspan></text>
    </g>
  </g>
</svg>
