<svg xmlns="http://www.w3.org/2000/svg" xmlns:xlink="http://www.w3.org/1999/xlink" width="279" height="216" viewBox="0 0 279 216">
  <defs>
    <filter id="Rectangle_4" x="0" y="0" width="279" height="216" filterUnits="userSpaceOnUse">
      <feOffset dy="3" input="SourceAlpha"/>
      <feGaussianBlur stdDeviation="3" result="blur"/>
      <feFlood flood-opacity="0.161"/>
      <feComposite operator="in" in2="blur"/>
      <feComposite in="SourceGraphic"/>
    </filter>
  </defs>
  <g id="Component_9_9" data-name="Component 9 – 9" transform="translate(9 6)">
    <g transform="matrix(1, 0, 0, 1, -9, -6)" filter="url(#Rectangle_4)">
      <path id="Rectangle_4-2" data-name="Rectangle 4" d="M0,0H207a54,54,0,0,1,54,54v90a54,54,0,0,1-54,54H0a0,0,0,0,1,0,0V0A0,0,0,0,1,0,0Z" transform="translate(270 204) rotate(180)" fill="#fff"/>
    </g>
    <g id="Group_27" data-name="Group 27" transform="translate(97.001 54.906)">
      <path id="Path_17" data-name="Path 17" d="M-15163.914-12251.9h65.474" transform="translate(15163.914 12276.869)" fill="none" stroke="#616161" stroke-linecap="round" stroke-width="8"/>
      <path id="Path_18" data-name="Path 18" d="M-15075.937-12299.087l24.97,24.97-24.97,24.97" transform="translate(15118.014 12299.087)" fill="none" stroke="#616161" stroke-linecap="round" stroke-width="8"/>
    </g>
    <text id="Start" transform="translate(96 147.312)" fill="#616161" font-size="30" font-family="GreycliffCF-Medium, Greycliff CF" font-weight="500"><tspan x="0" y="0">Start</tspan></text>
  </g>
</svg>
