<svg xmlns="http://www.w3.org/2000/svg" xmlns:xlink="http://www.w3.org/1999/xlink" width="698" height="177" viewBox="0 0 698 177">
  <defs>
    <filter id="Rectangle_19" x="0" y="43" width="161" height="88" filterUnits="userSpaceOnUse">
      <feOffset dy="3" input="SourceAlpha"/>
      <feGaussianBlur stdDeviation="3" result="blur"/>
      <feFlood flood-opacity="0.161"/>
      <feComposite operator="in" in2="blur"/>
      <feComposite in="SourceGraphic"/>
    </filter>
    <clipPath id="clip-path">
      <rect id="Rectangle_32" data-name="Rectangle 32" width="30.246" height="38.341" fill="none" stroke="#626262" stroke-width="2"/>
    </clipPath>
    <filter id="Rectangle_18" x="146" y="43" width="552" height="88" filterUnits="userSpaceOnUse">
      <feOffset dy="3" input="SourceAlpha"/>
      <feGaussianBlur stdDeviation="3" result="blur-2"/>
      <feFlood flood-opacity="0.161"/>
      <feComposite operator="in" in2="blur-2"/>
      <feComposite in="SourceGraphic"/>
    </filter>
    <filter id="Ellipse_4" x="66" y="0" width="177" height="177" filterUnits="userSpaceOnUse">
      <feOffset dy="5" input="SourceAlpha"/>
      <feGaussianBlur stdDeviation="3" result="blur-3"/>
      <feFlood flood-opacity="0.161"/>
      <feComposite operator="in" in2="blur-3"/>
      <feComposite in="SourceGraphic"/>
    </filter>
    <filter id="Ellipse_5" x="94.721" y="26.721" width="120.126" height="120.126" filterUnits="userSpaceOnUse">
      <feOffset dy="3" input="SourceAlpha"/>
      <feGaussianBlur stdDeviation="3" result="blur-4"/>
      <feFlood flood-opacity="0.161"/>
      <feComposite operator="in" in2="blur-4"/>
      <feComposite in="SourceGraphic"/>
    </filter>
    <filter id="S" x="135.953" y="42.205" width="36" height="80" filterUnits="userSpaceOnUse">
      <feOffset dy="3" input="SourceAlpha"/>
      <feGaussianBlur stdDeviation="3" result="blur-5"/>
      <feFlood flood-opacity="0.161" result="color"/>
      <feComposite operator="out" in="SourceGraphic" in2="blur-5"/>
      <feComposite operator="in" in="color"/>
      <feComposite operator="in" in2="SourceGraphic"/>
    </filter>
  </defs>
  <g id="Group_91" data-name="Group 91" transform="translate(-39 -35)">
    <g id="Group_75" data-name="Group 75" transform="translate(0 -169)">
      <g id="Group_52" data-name="Group 52" transform="translate(48 252.808)">
        <g transform="matrix(1, 0, 0, 1, -9, -48.81)" filter="url(#Rectangle_19)">
          <rect id="Rectangle_19-2" data-name="Rectangle 19" width="143" height="70" rx="30" transform="translate(9 49)" fill="#fff"/>
        </g>
      </g>
      <g id="Group_90" data-name="Group 90" transform="translate(75.889 272.33)">
        <g id="Group_53" data-name="Group 53" transform="translate(-4 -4)" clip-path="url(#clip-path)">
          <path id="Path_22" data-name="Path 22" d="M21.9,32.4H2.405a5.715,5.715,0,0,1-.865-.279A2.681,2.681,0,0,1,0,29.536q0-8.195,0-16.39c0-.8.2-1,.984-1H2.705c0-.875,0-1.706,0-2.537a9.161,9.161,0,0,1,2.652-6.7A9.131,9.131,0,0,1,14.3.262a9.389,9.389,0,0,1,7.294,9c.012.844.007,1.687.01,2.531,0,.112,0,.224,0,.354.658,0,1.269,0,1.88,0,.559,0,.824.258.824.807q0,8.337,0,16.674a2.54,2.54,0,0,1-1.111,2.226A7.05,7.05,0,0,1,21.9,32.4M17.543,12.14c0-.976.012-1.923,0-2.87a4.965,4.965,0,0,0-1.108-3.1,5.159,5.159,0,0,0-5.3-2.006A5.145,5.145,0,0,0,6.952,8.058a15.684,15.684,0,0,0-.181,4.029c0,.015.024.031.044.054ZM12.128,27.006c.4,0,.8,0,1.2,0,.63-.008.9-.327.829-.944q-.2-1.727-.381-3.456a.393.393,0,0,1,.111-.29,2.7,2.7,0,0,0-2.352-4.687A2.7,2.7,0,0,0,10.4,22.3a.427.427,0,0,1,.124.314c-.119,1.163-.252,2.325-.382,3.487a.72.72,0,0,0,.782.9c.4.01.8,0,1.2,0" transform="translate(2.969 2.969)" fill="none" stroke="#626262" stroke-width="2"/>
        </g>
      </g>
    </g>
    <g id="Group_43" data-name="Group 43" transform="translate(194 83.905)">
      <g transform="matrix(1, 0, 0, 1, -155, -48.91)" filter="url(#Rectangle_18)">
        <rect id="Rectangle_18-2" data-name="Rectangle 18" width="534" height="70" rx="30" transform="translate(155 49)" fill="#fff"/>
      </g>
      <text id="Sugar" transform="translate(97 51.095)" fill="#ffd990" font-size="41" font-family="GreycliffCF-Bold, Greycliff CF" font-weight="700"><tspan x="0" y="0">Sugar</tspan></text>
    </g>
    <g id="Group_30" data-name="Group 30" transform="translate(118 43)">
      <g transform="matrix(1, 0, 0, 1, -79, -8)" filter="url(#Ellipse_4)">
        <circle id="Ellipse_4-2" data-name="Ellipse 4" cx="75.5" cy="75.5" r="75.5" transform="translate(79 8)" fill="#ffd990" stroke="#fff" stroke-width="8"/>
      </g>
      <g transform="matrix(1, 0, 0, 1, -79, -8)" filter="url(#Ellipse_5)">
        <circle id="Ellipse_5-2" data-name="Ellipse 5" cx="51.063" cy="51.063" r="51.063" transform="translate(103.72 32.72)" fill="#fff"/>
      </g>
      <g data-type="innerShadowGroup">
        <text id="S-2" data-name="S" transform="translate(74.953 98.205)" fill="#ffd990" font-size="63" font-family="GreycliffCF-Bold, Greycliff CF" font-weight="700"><tspan x="-17" y="0">S</tspan></text>
        <g transform="matrix(1, 0, 0, 1, -79, -8)" filter="url(#S)">
          <text id="S-3" data-name="S" transform="translate(153.95 106.21)" fill="#fff" font-size="63" font-family="GreycliffCF-Bold, Greycliff CF" font-weight="700"><tspan x="-17" y="0">S</tspan></text>
        </g>
      </g>
    </g>
  </g>
</svg>
