<svg xmlns="http://www.w3.org/2000/svg" width="63.311" height="62" viewBox="0 0 63.311 62"><defs><style>.a{fill:#ffcc4d;}.b{fill:#231f20;}</style></defs><g transform="translate(0 0)"><path class="a" d="M3.877,22.149c-3.334,0-4.8-2.422-3.269-5.381l28.252-54.4c1.535-2.959,4.051-2.959,5.587,0L62.7,16.768c1.538,2.959.067,5.381-3.269,5.381Z" transform="translate(0 39.85)"/><path class="b" d="M214.642,74.353a3.121,3.121,0,0,1,3.368-3.181,3.172,3.172,0,0,1,3.37,3.181V92.368a3.173,3.173,0,0,1-3.37,3.181,3.122,3.122,0,0,1-3.368-3.181Zm-.281,27.6a3.649,3.649,0,1,1,3.649,3.65,3.653,3.653,0,0,1-3.649-3.65" transform="translate(-187.081 -51.569)"/></g></svg>