<svg xmlns="http://www.w3.org/2000/svg" xmlns:xlink="http://www.w3.org/1999/xlink" width="26.657" height="22.427" viewBox="0 0 26.657 22.427">
  <defs>
    <clipPath id="clip-path">
      <rect id="Rectangle_1190" data-name="Rectangle 1190" width="26.657" height="22.427" fill="none" stroke="#414141" stroke-width="2"/>
    </clipPath>
  </defs>
  <g id="Group_4798" data-name="Group 4798" clip-path="url(#clip-path)">
    <path id="Path_1680" data-name="Path 1680" d="M9.854,1.218l-5.3,5.92a1.442,1.442,0,0,1-1.074.48H1.219A.719.719,0,0,0,.5,8.337v3.972a.719.719,0,0,0,.719.719H3.478a1.442,1.442,0,0,1,1.074.48l5.3,5.92a.378.378,0,0,0,.66-.252V1.47A.378.378,0,0,0,9.854,1.218Z" transform="translate(1.378 0.994)" fill="#05222e"/>
    <path id="Path_1684" data-name="Path 1684" d="M14.647,3.294l8.9,8.9" transform="translate(0.48 2.872)" fill="none" stroke="#05222e" stroke-linecap="round" stroke-width="2"/>
    <path id="Path_1685" data-name="Path 1685" d="M0,0,8.9,8.9" transform="translate(24.025 6.165) rotate(90)" fill="none" stroke="#05222e" stroke-linecap="round" stroke-width="2"/>
  </g>
</svg>
