<svg xmlns="http://www.w3.org/2000/svg" xmlns:xlink="http://www.w3.org/1999/xlink" width="100" height="70" viewBox="0 0 100 70">
  <defs>
    <clipPath id="clip-path">
      <rect id="Rectangle_31" data-name="Rectangle 31" width="19.783" height="27.84" fill="#fff"/>
    </clipPath>
  </defs>
  <g id="Group_4806" data-name="Group 4806" transform="translate(-387 -173)">
    <rect id="Rectangle_50" data-name="Rectangle 50" width="100" height="70" transform="translate(387 173)" fill="#05222e"/>
    <text id="Navigation" transform="translate(437 229)" fill="#fff" font-size="14" font-family="GreycliffCF-Bold, Greycliff CF" font-weight="700"><tspan x="-36" y="0">Navigation</tspan></text>
    <g id="Group_49" data-name="Group 49" transform="translate(427 182)" clip-path="url(#clip-path)">
      <path id="Path_21" data-name="Path 21" d="M7.791,21.987a4.251,4.251,0,0,1-.549-.459A44.746,44.746,0,0,1,2.314,14.7a19.583,19.583,0,0,1-1.977-4.48A7.749,7.749,0,0,1,1.36,3.53,7.672,7.672,0,0,1,6.862.085,7.685,7.685,0,0,1,13,1.806a7.781,7.781,0,0,1,2.832,4.972,8.826,8.826,0,0,1-.593,4.52,26.693,26.693,0,0,1-2.918,5.477,47.838,47.838,0,0,1-3.637,4.753,4.319,4.319,0,0,1-.549.459Zm.147-10.018A4.009,4.009,0,1,0,3.962,7.919a4.011,4.011,0,0,0,3.977,4.049" transform="translate(1.932 2.927)" fill="#fff"/>
    </g>
  </g>
</svg>
