<?xml version="1.0" encoding="UTF-8"?>
<svg id="Layer_2" data-name="Layer 2" xmlns="http://www.w3.org/2000/svg" viewBox="0 0 89.46 89.46">
  <defs>
    <style>
      .cls-1 {
        fill: #fffdfd;
      }

      .cls-2 {
        fill: #f6a87a;
      }

      .cls-3 {
        fill: #5b5b5b;
      }
    </style>
  </defs>
  <g id="Layer_1-2" data-name="Layer 1">
    <g>
      <g>
        <circle class="cls-1" cx="44.73" cy="44.73" r="43.73"/>
        <path class="cls-3" d="M44.73,89.46C20.06,89.46,0,69.39,0,44.73S20.06,0,44.73,0s44.73,20.06,44.73,44.73-20.07,44.73-44.73,44.73Zm0-87.46C21.17,2,2,21.17,2,44.73s19.17,42.73,42.73,42.73,42.73-19.17,42.73-42.73S68.29,2,44.73,2Z"/>
      </g>
      <g>
        <g>
          <path class="cls-1" d="M31.73,36.51s-2.47-2.13-6.68-1.68-7.13,2.49-7.68,8.19c-.87,9,9.65,13.74,16.6,5.83,1.12,1.12,2.16,10.07,23,7.03,5.16-.75,12-7.15,3.48-15.9,0,0,3.38,.48,7.52,.9,4.77,.48,7.12-6.84-2.3-8.95-4.29-.96-12.73-3.73-13.18,1.54l-.45,5.27-11.33-1.01s.45-10.32-5.95-10.1c-4.01,.93-3.03,8.86-3.03,8.86Z"/>
          <path class="cls-3" d="M49.21,57.51c-11.27,0-14.22-4.66-15.44-7-4.04,3.85-8.63,3.91-11.73,2.56-3.88-1.68-6.1-5.67-5.67-10.15,.54-5.56,3.34-8.53,8.57-9.09,2.46-.27,4.4,.28,5.68,.86-.02-2.67,.46-7.23,3.91-8.02,.06-.01,.13-.02,.19-.02,1.67-.06,3.1,.49,4.23,1.63,2.33,2.35,2.71,6.64,2.75,8.55l9.42,.84,.36-4.27c.11-1.34,.66-2.37,1.63-3.07,2.57-1.85,7.33-.69,11.15,.25,.58,.14,1.13,.28,1.62,.39,5.94,1.33,7.59,4.66,7.2,7.11-.39,2.43-2.64,4.06-5.21,3.8-1.88-.19-3.61-.39-4.94-.56,2.96,3.93,2.86,7.13,2.15,9.24-1.26,3.73-5.01,5.89-7.95,6.32-3.01,.44-5.63,.63-7.9,.63Zm-15.24-9.65c.26,0,.52,.1,.71,.29,.26,.26,.45,.63,.69,1.09,1.14,2.24,4.16,8.18,21.46,5.66,2.44-.35,5.4-2.18,6.35-4.98,.94-2.77-.25-5.96-3.44-9.23-.3-.31-.37-.77-.18-1.15,.19-.38,.62-.6,1.03-.54,.03,0,3.4,.49,7.47,.89,1.73,.18,2.85-.97,3.04-2.13,.26-1.59-1.07-3.82-5.66-4.84-.5-.11-1.06-.25-1.66-.4-3.06-.75-7.68-1.88-9.5-.57-.48,.35-.74,.86-.8,1.61l-.45,5.27c-.02,.26-.15,.51-.35,.68-.2,.17-.46,.25-.73,.23l-11.33-1.01c-.53-.05-.93-.51-.91-1.04,0-.06,.21-5.62-2.17-8.02-.71-.71-1.56-1.06-2.64-1.04-2.46,.69-2.39,5.94-2.17,7.74,.05,.41-.16,.81-.52,1-.36,.19-.81,.15-1.12-.12-.1-.08-2.24-1.84-5.92-1.45-4.31,.46-6.34,2.64-6.8,7.29-.35,3.66,1.36,6.77,4.47,8.12,2.7,1.17,6.84,.98,10.39-3.04,.18-.21,.44-.33,.72-.34,.01,0,.02,0,.03,0Z"/>
        </g>
        <path class="cls-2" d="M46.06,62.85c-14.19,0-26-5.1-26.74-5.43-.51-.22-.73-.81-.51-1.32,.22-.5,.81-.73,1.32-.51,.27,.12,26.84,11.58,47.69,.04,.48-.27,1.09-.09,1.36,.39,.27,.48,.09,1.09-.39,1.36-7.41,4.1-15.39,5.47-22.73,5.47Z"/>
      </g>
    </g>
  </g>
</svg>