<svg xmlns="http://www.w3.org/2000/svg" width="34" height="35" viewBox="0 0 34 35"><defs><style>.a{fill:#fff;stroke:#707070;opacity:0;}.b{fill:#24374c;}.c{stroke:none;}.d{fill:none;}</style></defs><g transform="translate(0.364)"><g class="a" transform="translate(-0.364)"><rect class="c" width="34" height="35"/><rect class="d" x="0.5" y="0.5" width="33" height="34"/></g><g transform="translate(2.605 6.128)"><g transform="translate(0 0)"><path class="b" d="M26.763,64.465H1.44A1.442,1.442,0,0,1,0,63.025V49.409a1.442,1.442,0,0,1,1.44-1.44H26.763a1.442,1.442,0,0,1,1.44,1.44V63.025A1.442,1.442,0,0,1,26.763,64.465ZM1.44,49.132a.277.277,0,0,0-.277.277V63.025a.277.277,0,0,0,.277.277H26.763a.277.277,0,0,0,.277-.277V49.409a.277.277,0,0,0-.277-.277Z" transform="translate(0 -47.969)"/></g><g transform="translate(10.775 3.764)"><path class="b" d="M187.529,122.261a.592.592,0,0,1-.315-.517v-7.806a.582.582,0,0,1,.919-.474l5.489,3.9a.582.582,0,0,1,0,.948l-5.489,3.9A.532.532,0,0,1,187.529,122.261Zm.848-7.2v5.551l3.9-2.776Z" transform="translate(-187.214 -113.357)"/></g><path class="b" d="M27.621,363.753H16.505a2.3,2.3,0,0,0-4.455,0H.582a.582.582,0,0,0,0,1.163H12.051a2.3,2.3,0,0,0,4.455,0H27.621a.582.582,0,0,0,0-1.163Zm-13.344,1.721a1.139,1.139,0,1,1,1.139-1.139A1.14,1.14,0,0,1,14.278,365.474Z" transform="translate(0 -343.956)"/></g></g></svg>