<svg xmlns="http://www.w3.org/2000/svg" xmlns:xlink="http://www.w3.org/1999/xlink" width="158" height="159" viewBox="0 0 158 159">
  <defs>
    <filter id="Ellipse_5" x="19.237" y="23.142" width="120.126" height="120.126" filterUnits="userSpaceOnUse">
      <feOffset dy="3" input="SourceAlpha"/>
      <feGaussianBlur stdDeviation="3" result="blur"/>
      <feFlood flood-opacity="0.161"/>
      <feComposite operator="in" in2="blur"/>
      <feComposite in="SourceGraphic"/>
    </filter>
  </defs>
  <g id="Group_32" data-name="Group 32" transform="translate(3.516 4.421)">
    <ellipse id="Ellipse_4" data-name="Ellipse 4" cx="75" cy="75.5" rx="75" ry="75.5" transform="translate(0.484 -0.421)" fill="#fff" stroke="#88b2df" stroke-width="8"/>
    <g transform="matrix(1, 0, 0, 1, -3.52, -4.42)" filter="url(#Ellipse_5)">
      <circle id="Ellipse_5-2" data-name="Ellipse 5" cx="51.063" cy="51.063" r="51.063" transform="translate(28.24 29.14)" fill="#88b2df"/>
    </g>
    <path id="Path_47" data-name="Path 47" d="M-19.6,0h7.67a1.04,1.04,0,0,0,1.105-.78l2.21-6.695H8.548L10.758-.78a1.04,1.04,0,0,0,1.1.78h7.67c.715,0,1.1-.455.845-1.105L5.168-44.72a1.275,1.275,0,0,0-1.235-.78H-3.932a1.275,1.275,0,0,0-1.235.78L-20.377-1.105C-20.637-.455-20.312,0-19.6,0Zm13.65-15.73L-.032-33.8,5.883-15.73Z" transform="translate(75.089 100.205)" fill="#fff"/>
  </g>
</svg>
