<svg xmlns="http://www.w3.org/2000/svg" xmlns:xlink="http://www.w3.org/1999/xlink" width="159" height="159" viewBox="0 0 159 159">
  <defs>
    <filter id="Ellipse_5" x="19.51" y="22.963" width="120.126" height="120.126" filterUnits="userSpaceOnUse">
      <feOffset dy="3" input="SourceAlpha"/>
      <feGaussianBlur stdDeviation="3" result="blur"/>
      <feFlood flood-opacity="0.161"/>
      <feComposite operator="in" in2="blur"/>
      <feComposite in="SourceGraphic"/>
    </filter>
  </defs>
  <g id="Group_35" data-name="Group 35" transform="translate(3.789 4.242)">
    <circle id="Ellipse_4" data-name="Ellipse 4" cx="75.5" cy="75.5" r="75.5" transform="translate(0.211 -0.242)" fill="#fff" stroke="#a993c5" stroke-width="8"/>
    <g transform="matrix(1, 0, 0, 1, -3.79, -4.24)" filter="url(#Ellipse_5)">
      <circle id="Ellipse_5-2" data-name="Ellipse 5" cx="51.063" cy="51.063" r="51.063" transform="translate(28.51 28.96)" fill="#a993c5"/>
    </g>
    <path id="Path_50" data-name="Path 50" d="M-10.757,0H11.315a.879.879,0,0,0,.93-.93V-6.944a.879.879,0,0,0-.93-.93H-2.821V-18.042h13.33a.879.879,0,0,0,.93-.93v-6.014a.879.879,0,0,0-.93-.93H-2.821v-9.61H11.315a.879.879,0,0,0,.93-.93V-42.47a.879.879,0,0,0-.93-.93H-10.757a.879.879,0,0,0-.93.93V-.93A.879.879,0,0,0-10.757,0Z" transform="translate(74.953 97.205)" fill="#fff"/>
  </g>
</svg>
