<svg xmlns="http://www.w3.org/2000/svg" xmlns:xlink="http://www.w3.org/1999/xlink" width="159" height="159" viewBox="0 0 159 159">
  <defs>
    <filter id="Ellipse_5" x="19.752" y="22.563" width="120.126" height="120.126" filterUnits="userSpaceOnUse">
      <feOffset dy="3" input="SourceAlpha"/>
      <feGaussianBlur stdDeviation="3" result="blur"/>
      <feFlood flood-opacity="0.161"/>
      <feComposite operator="in" in2="blur"/>
      <feComposite in="SourceGraphic"/>
    </filter>
  </defs>
  <g id="Group_34" data-name="Group 34" transform="translate(4.031 3.842)">
    <circle id="Ellipse_4" data-name="Ellipse 4" cx="75.5" cy="75.5" r="75.5" transform="translate(-0.031 0.158)" fill="#fff" stroke="#f5a472" stroke-width="8"/>
    <g transform="matrix(1, 0, 0, 1, -4.03, -3.84)" filter="url(#Ellipse_5)">
      <circle id="Ellipse_5-2" data-name="Ellipse 5" cx="51.063" cy="51.063" r="51.063" transform="translate(28.75 28.56)" fill="#f5a472"/>
    </g>
    <path id="Path_49" data-name="Path 49" d="M-10.14,0H12.09a.921.921,0,0,0,.975-.975V-7.28a.921.921,0,0,0-.975-.975H-1.82v-36.27a.921.921,0,0,0-.975-.975H-10.14a.921.921,0,0,0-.975.975V-.975A.921.921,0,0,0-10.14,0Z" transform="translate(75.142 100.205)" fill="#fff"/>
  </g>
</svg>
