<svg xmlns="http://www.w3.org/2000/svg" xmlns:xlink="http://www.w3.org/1999/xlink" width="159" height="159" viewBox="0 0 159 159">
  <defs>
    <filter id="Ellipse_5" x="19.721" y="22.721" width="120.126" height="120.126" filterUnits="userSpaceOnUse">
      <feOffset dy="3" input="SourceAlpha"/>
      <feGaussianBlur stdDeviation="3" result="blur"/>
      <feFlood flood-opacity="0.161"/>
      <feComposite operator="in" in2="blur"/>
      <feComposite in="SourceGraphic"/>
    </filter>
    <filter id="Path_39" x="64.335" y="57.601" width="29.265" height="45.36" filterUnits="userSpaceOnUse">
      <feOffset dy="3" input="SourceAlpha"/>
      <feGaussianBlur stdDeviation="3" result="blur-2"/>
      <feFlood flood-opacity="0.161" result="color"/>
      <feComposite operator="out" in="SourceGraphic" in2="blur-2"/>
      <feComposite operator="in" in="color"/>
      <feComposite operator="in" in2="SourceGraphic"/>
    </filter>
  </defs>
  <g id="Group_30" data-name="Group 30" transform="translate(4 4)">
    <circle id="Ellipse_4" data-name="Ellipse 4" cx="75.5" cy="75.5" r="75.5" fill="#ffd990" stroke="#fff" stroke-width="8"/>
    <g transform="matrix(1, 0, 0, 1, -4, -4)" filter="url(#Ellipse_5)">
      <circle id="Ellipse_5-2" data-name="Ellipse 5" cx="51.063" cy="51.063" r="51.063" transform="translate(28.72 28.72)" fill="#fff"/>
    </g>
    <g data-type="innerShadowGroup">
      <path id="Path_39-2" data-name="Path 39" d="M-.094.756c7.5,0,14.742-4.1,14.742-12.978,0-7.434-5.04-10.4-9.828-12.663L.284-26.964c-3.4-1.575-5.166-2.583-5.166-5.166,0-2.646,2.016-4.221,5.229-4.221,2.772,0,4.977,1.2,7.686,3.591a.91.91,0,0,0,1.386-.252l3.591-4.347a1.008,1.008,0,0,0-.063-1.449A17.01,17.01,0,0,0,.032-44.6c-7.5,0-13.608,4.41-13.608,12.411,0,6.552,4.158,9.891,8.82,12.033L.6-17.64c3.087,1.386,5.292,2.457,5.292,5.418C5.891-9.072,3.434-7.5-.284-7.5c-3.591,0-6.111-1.512-8.883-4.347a.922.922,0,0,0-1.449.126L-14.269-7.5A1,1,0,0,0-14.4-6.111,17.426,17.426,0,0,0-.094.756Z" transform="translate(74.953 98.205)" fill="#ffd990"/>
      <g transform="matrix(1, 0, 0, 1, -4, -4)" filter="url(#Path_39)">
        <path id="Path_39-3" data-name="Path 39" d="M-.094.756c7.5,0,14.742-4.1,14.742-12.978,0-7.434-5.04-10.4-9.828-12.663L.284-26.964c-3.4-1.575-5.166-2.583-5.166-5.166,0-2.646,2.016-4.221,5.229-4.221,2.772,0,4.977,1.2,7.686,3.591a.91.91,0,0,0,1.386-.252l3.591-4.347a1.008,1.008,0,0,0-.063-1.449A17.01,17.01,0,0,0,.032-44.6c-7.5,0-13.608,4.41-13.608,12.411,0,6.552,4.158,9.891,8.82,12.033L.6-17.64c3.087,1.386,5.292,2.457,5.292,5.418C5.891-9.072,3.434-7.5-.284-7.5c-3.591,0-6.111-1.512-8.883-4.347a.922.922,0,0,0-1.449.126L-14.269-7.5A1,1,0,0,0-14.4-6.111,17.426,17.426,0,0,0-.094.756Z" transform="translate(78.95 102.21)" fill="#fff"/>
      </g>
    </g>
  </g>
</svg>
