<svg xmlns="http://www.w3.org/2000/svg" xmlns:xlink="http://www.w3.org/1999/xlink" width="159" height="159" viewBox="0 0 159 159">
  <defs>
    <filter id="Ellipse_5" x="19.479" y="22.932" width="120.126" height="120.126" filterUnits="userSpaceOnUse">
      <feOffset dy="3" input="SourceAlpha"/>
      <feGaussianBlur stdDeviation="3" result="blur"/>
      <feFlood flood-opacity="0.161"/>
      <feComposite operator="in" in2="blur"/>
      <feComposite in="SourceGraphic"/>
    </filter>
  </defs>
  <g id="Group_31" data-name="Group 31" transform="translate(3.758 4.211)">
    <path id="Path_23" data-name="Path 23" d="M75.5,0A75.5,75.5,0,1,1,0,75.5,75.5,75.5,0,0,1,75.5,0Z" transform="translate(0.242 -0.211)" fill="#fff" stroke="#c6e1aa" stroke-width="8"/>
    <g transform="matrix(1, 0, 0, 1, -3.76, -4.21)" filter="url(#Ellipse_5)">
      <circle id="Ellipse_5-2" data-name="Ellipse 5" cx="51.063" cy="51.063" r="51.063" transform="translate(28.48 28.93)" fill="#c6e1aa"/>
    </g>
    <path id="Path_46" data-name="Path 46" d="M-3.559,0H3.56A.893.893,0,0,0,4.5-.945V-36.1h8.568a.893.893,0,0,0,.945-.945v-6.111a.893.893,0,0,0-.945-.945H-13.135a.893.893,0,0,0-.945.945v6.111a.893.893,0,0,0,.945.945H-4.5V-.945A.893.893,0,0,0-3.559,0Z" transform="translate(75.142 98.205)" fill="#fff"/>
  </g>
</svg>
