<svg xmlns="http://www.w3.org/2000/svg" width="29.91" height="29.291" viewBox="0 0 29.91 29.291"><defs><style>.a{fill:#ffcc4d;}.b{fill:#231f20;}</style></defs><g transform="translate(0 39.85)"><g transform="translate(0 -39.85)"><g transform="translate(0 0)"><path class="a" d="M1.832-10.559A1.6,1.6,0,0,1,.288-13.1L13.635-38.8c.725-1.4,1.914-1.4,2.64,0L29.622-13.1a1.6,1.6,0,0,1-1.544,2.542Z" transform="translate(0 39.85)"/><path class="b" d="M214.52,72.975a1.768,1.768,0,0,1,1.909-1.8,1.8,1.8,0,0,1,1.909,1.8V83.183a1.8,1.8,0,0,1-1.909,1.8,1.769,1.769,0,0,1-1.909-1.8Zm-.159,15.642a2.068,2.068,0,1,1,2.068,2.069,2.07,2.07,0,0,1-2.068-2.069" transform="translate(-201.473 -64.497)"/></g></g></g></svg>