<?xml version="1.0" encoding="UTF-8"?>
<svg id="Layer_2" data-name="Layer 2" xmlns="http://www.w3.org/2000/svg" viewBox="0 0 48.15 43">
  <defs>
    <style>
      .cls-1 {
        fill: #5b5b5b;
      }
    </style>
  </defs>
  <g id="Layer_1-2" data-name="Layer 1">
    <g>
      <g>
        <g>
          <path class="cls-1" d="M47.15,0H17.15c-.55,0-1,.45-1,1V9.63c.52-.08,1.05-.13,1.59-.13,.14,0,.27,.02,.41,.02V2h28V28.67h-10c-.55,0-1,.45-1,1v11.33H18.15v-7.52c-.14,0-.27,.02-.41,.02-.53,0-1.06-.05-1.59-.13v8.63c0,.55,.45,1,1,1h19c.55,0,1-.45,1-1v-11.33h10c.55,0,1-.45,1-1V1c0-.55-.45-1-1-1Z"/>
          <polygon class="cls-1" points="48.15 30 37.15 42.33 37.15 30 48.15 30"/>
        </g>
        <path class="cls-1" d="M42.15,10h-13c-.55,0-1-.45-1-1s.45-1,1-1h13c.55,0,1,.45,1,1s-.45,1-1,1Z"/>
        <path class="cls-1" d="M42.15,15h-13c-.55,0-1-.45-1-1s.45-1,1-1h13c.55,0,1,.45,1,1s-.45,1-1,1Z"/>
        <path class="cls-1" d="M42.15,20h-7c-.55,0-1-.45-1-1s.45-1,1-1h7c.55,0,1,.45,1,1s-.45,1-1,1Z"/>
      </g>
      <path class="cls-1" d="M17.74,11c-5.79,0-10.5,4.71-10.5,10.5,0,1.95,.55,3.78,1.48,5.35L.83,35.34c-1.17,1.26-1.1,3.24,.17,4.41,1.26,1.17,3.24,1.1,4.41-.17l7.94-8.56c1.34,.62,2.82,.97,4.38,.97,5.79,0,10.5-4.71,10.5-10.5s-4.71-10.5-10.5-10.5Zm0,18c-4.14,0-7.5-3.36-7.5-7.5s3.36-7.5,7.5-7.5,7.5,3.36,7.5,7.5-3.36,7.5-7.5,7.5Z"/>
    </g>
  </g>
</svg>