<svg xmlns="http://www.w3.org/2000/svg" width="30" height="25.285" viewBox="0 0 30 25.285"><defs><style>.a{fill:#5b5b5b;fill-rule:evenodd;}</style></defs><path class="a" d="M1433.958,106.6a.64.64,0,0,1,.5.214.646.646,0,0,1,.2.484v17.539a.708.708,0,0,1-.2.5l-6.326,6.349a.689.689,0,0,1-.5.2H1415.7a.658.658,0,0,1-.484-.2.684.684,0,0,1-.214-.5v-3.264a6.741,6.741,0,0,0,.746.042q.338,0,.649-.028v2.552h10.539v-5.65a.735.735,0,0,1,.7-.7h5.635V108H1416.4v4.17q-.311-.028-.649-.028-.373,0-.746.028V107.3a.626.626,0,0,1,.214-.484.638.638,0,0,1,.484-.214Z" transform="translate(-1404.656 -106.6)"/><path class="a" d="M1494.4,182.191a.721.721,0,0,1,.7-.691h4.247a.678.678,0,0,1,.5.207.722.722,0,0,1,.055.062.669.669,0,0,1,.145.421.689.689,0,0,1-.145.435.249.249,0,0,1-.055.062.69.69,0,0,1-.5.2H1495.1a.644.644,0,0,1-.483-.2A.667.667,0,0,1,1494.4,182.191Z" transform="translate(-1473.088 -171.139)"/><path class="a" d="M1474.457,161.595a.678.678,0,0,1-.207-.5.721.721,0,0,1,.7-.7h7.031a.668.668,0,0,1,.5.214.738.738,0,0,1,.055.062.633.633,0,0,1,.145.421.727.727,0,0,1-.145.435.251.251,0,0,1-.055.062.69.69,0,0,1-.5.2h-7.031A.666.666,0,0,1,1474.457,161.595Z" transform="translate(-1455.721 -152.958)"/><path class="a" d="M1482.676,140.248a.673.673,0,0,1-.7.691h-7.031a.679.679,0,0,1-.49-.193.692.692,0,0,1-.207-.5.708.708,0,0,1,.7-.7h7.031a.678.678,0,0,1,.5.207A.667.667,0,0,1,1482.676,140.248Z" transform="translate(-1455.721 -134.992)"/><path class="a" d="M1356.311,156.117V156.1a6.886,6.886,0,0,0-9.71,0l-.007.014a6.6,6.6,0,0,0-2,4.849,6.683,6.683,0,0,0,.78,3.219l-4.227,4.227a2.568,2.568,0,0,0,0,3.619,2.551,2.551,0,0,0,3.619.014l4.448-4.455a.5.5,0,0,1,.09-.083,6.967,6.967,0,0,0,2.148.325,6.857,6.857,0,0,0,4.862-11.714Zm-1.7,7.991v.014a4.469,4.469,0,1,1,1.305-3.156A4.255,4.255,0,0,1,1354.612,164.108Z" transform="translate(-1340.398 -147.505)"/></svg>