<svg xmlns="http://www.w3.org/2000/svg" width="46" height="54.03" viewBox="0 0 46 54.03"><defs><style>.a{fill:#e4ba4e;}.b{fill:#5b5b5b;}</style></defs><g transform="translate(-368 -300)"><path class="a" d="M517.183,625H491.964a1.111,1.111,0,1,0,0,2.22h25.219a1.111,1.111,0,1,0,0-2.22Z" transform="translate(-111.249 -292.805)"/><path class="a" d="M517.183,561H491.964a1.161,1.161,0,0,0,0,2.321h25.219a1.161,1.161,0,0,0,0-2.321Z" transform="translate(-111.249 -235.145)"/><path class="b" d="M422.533,413.1c-.2,0-.432.005-.533.016v2.006a2.559,2.559,0,0,0,.45.036c1.414,0,1.574-.574,1.574-1.074C424.024,413.794,424.039,413.1,422.533,413.1Z" transform="translate(-48.55 -101.899)"/><path class="b" d="M482.92,413.1c-.211,0-.516.019-.92.056v4.8c.4.013.52.02.845.02a1.916,1.916,0,0,0,1.772-.857,3.215,3.215,0,0,0,.427-1.723C485.044,413.834,484.374,413.1,482.92,413.1Z" transform="translate(-102.712 -101.911)"/><path class="b" d="M393.633,371.806A2.806,2.806,0,0,0,390.827,369H370.806A2.806,2.806,0,0,0,368,371.806v8.113a2.806,2.806,0,0,0,2.806,2.806h20.021a2.806,2.806,0,0,0,2.806-2.806Zm-17.453,4.543a3.813,3.813,0,0,1-2.391.71,3.083,3.083,0,0,1-.339-.011V379.9h-1.716v-7.763l.293-.052a12.017,12.017,0,0,1,1.946-.184,3.6,3.6,0,0,1,2.284.669,2.228,2.228,0,0,1,.892,1.821A2.355,2.355,0,0,1,376.18,376.349Zm7.219,2.211a3.885,3.885,0,0,1-3.21,1.318c-.424,0-1.073-.05-2.021-.151l-.278-.036v-7.557l.276-.038c1.16-.132,1.859-.2,2.273-.2a3.651,3.651,0,0,1,3,1.227,4.049,4.049,0,0,1,.806,2.62A4.383,4.383,0,0,1,383.4,378.56Zm6.6-5.018h-3.33v1.413H389.8v1.716H386.67V379.9h-1.817v-7.972H390Z" transform="translate(0 -62.037)"/><path class="b" d="M445.45,300v0H425.716A2.759,2.759,0,0,0,423,302.806v2.745h2.275v-1.425a1.781,1.781,0,0,1,1.758-1.847H445.45v12.991a2.764,2.764,0,0,0,2.741,2.772h12.984V350a1.868,1.868,0,0,1-1.86,1.849H427.033A1.783,1.783,0,0,1,425.275,350V321.711H423v29.61a2.676,2.676,0,0,0,2.716,2.709h34.917a2.763,2.763,0,0,0,2.817-2.709V318.037Z" transform="translate(-49.45)"/></g></svg>