<?xml version="1.0" encoding="UTF-8"?>
<svg id="Layer_2" data-name="Layer 2" xmlns="http://www.w3.org/2000/svg" viewBox="0 0 74.56 75.32">
  <defs>
    <style>
      .cls-1 {
        fill: #f6a87a;
      }

      .cls-2 {
        fill: #5b5b5b;
      }
    </style>
  </defs>
  <g id="Layer_1-2" data-name="Layer 1">
    <g>
      <g>
        <path class="cls-2" d="M73.05,66.52l-18.33-18.33c-1.98,2.84-4.44,5.32-7.27,7.31l18.31,18.31c2.01,2.01,5.28,2.01,7.29,0,2.01-2.01,2.01-5.28,0-7.29Z"/>
        <path class="cls-2" d="M54,30.36c0,13.53-10.97,24.5-24.5,24.5S5,43.89,5,30.36,15.97,5.86,29.5,5.86c8.23,0,15.51,4.07,19.96,10.3l3.58-3.58C47.65,5.46,39.11,.86,29.5,.86,13.21,.86,0,14.07,0,30.36s13.21,29.5,29.5,29.5c6.31,0,12.16-1.99,16.95-5.36,2.83-1.99,5.29-4.47,7.27-7.31,3.32-4.77,5.28-10.57,5.28-16.83,0-4.09-.83-7.98-2.33-11.52l-3.88,3.89c.79,2.4,1.22,4.96,1.22,7.63Z"/>
      </g>
      <path class="cls-1" d="M29.43,43.69c-.05,0-.1,0-.15,0-.72-.04-1.38-.39-1.82-.96l-12.43-15.93c-.85-1.09-.66-2.66,.43-3.51,1.09-.85,2.66-.66,3.51,.43l10.69,13.7L55.23,11.79c.98-.98,2.56-.98,3.54,0,.98,.98,.98,2.56,0,3.54l-27.57,27.64c-.47,.47-1.11,.73-1.77,.73Z"/>
      <path class="cls-1" d="M57.78,6.09c-.11,0-.22-.02-.32-.05-.52-.18-.8-.75-.62-1.27l1.39-4.09c.18-.52,.74-.8,1.27-.62,.52,.18,.8,.75,.62,1.27l-1.39,4.09c-.14,.42-.53,.68-.95,.68Z"/>
      <path class="cls-1" d="M63.82,12.81c-.44,0-.85-.3-.97-.75-.14-.53,.18-1.08,.71-1.22l4.18-1.1c.53-.14,1.08,.18,1.22,.71,.14,.53-.18,1.08-.71,1.22l-4.18,1.1c-.08,.02-.17,.03-.25,.03Z"/>
      <path class="cls-1" d="M61.39,8.89c-.26,0-.53-.1-.72-.31-.38-.4-.37-1.03,.03-1.41l3.12-2.99c.4-.38,1.03-.37,1.41,.03,.38,.4,.37,1.03-.03,1.41l-3.12,2.99c-.19,.19-.44,.28-.69,.28Z"/>
    </g>
  </g>
</svg>