<?xml version="1.0" encoding="UTF-8"?>
<svg id="Layer_2" data-name="Layer 2" xmlns="http://www.w3.org/2000/svg" viewBox="0 0 79 79">
  <defs>
    <style>
      .cls-1 {
        fill: #fff;
      }

      .cls-2 {
        fill: #fffdfd;
      }

      .cls-3 {
        fill: #f6a87a;
      }

      .cls-4 {
        fill: #5b5b5b;
      }
    </style>
  </defs>
  <g id="Layer_1-2" data-name="Layer 1">
    <g>
      <g>
        <circle class="cls-2" cx="39.5" cy="39.5" r="38.5"/>
        <path class="cls-4" d="M39.5,79C17.72,79,0,61.28,0,39.5S17.72,0,39.5,0s39.5,17.72,39.5,39.5-17.72,39.5-39.5,39.5Zm0-77C18.82,2,2,18.82,2,39.5s16.82,37.5,37.5,37.5,37.5-16.82,37.5-37.5S60.18,2,39.5,2Z"/>
      </g>
      <path class="cls-4" d="M40.25,23.25c-4.14,0-7.5-3.36-7.5-7.5s3.36-7.5,7.5-7.5,7.5,3.36,7.5,7.5-3.36,7.5-7.5,7.5Zm0-13.5c-3.31,0-6,2.69-6,6s2.69,6,6,6,6-2.69,6-6-2.69-6-6-6Z"/>
      <path class="cls-4" d="M57.06,34.8c-.3,0-.58-.18-.7-.48-1.9-4.92-6-8.74-11.04-10.29-1.41,1.42-3.32,2.22-5.32,2.22s-3.81-.76-5.21-2.11c-4.84,1.62-8.8,5.39-10.65,10.17-.15,.39-.58,.58-.97,.43-.39-.15-.58-.58-.43-.97,2.06-5.35,6.56-9.53,12.04-11.2,.28-.08,.58,0,.77,.21,1.14,1.25,2.76,1.97,4.44,1.97s3.38-.75,4.52-2.07c.19-.22,.49-.31,.77-.23,5.69,1.59,10.35,5.82,12.47,11.33,.15,.39-.04,.82-.43,.97-.09,.03-.18,.05-.27,.05Z"/>
      <path class="cls-3" d="M40.35,68.97c-.11,0-.22-.02-.32-.07l-.07-.04c-16.67-8.09-18.13-26.75-17.99-34.4,0-.18,0-.31,0-.4,0-.2,.08-.4,.22-.54,.14-.14,.33-.2,.54-.22,8.88,.1,17.49-4.8,17.57-4.85,.24-.14,.54-.13,.77,.01,.08,.05,8,4.93,16.89,4.84,.22,.02,.4,.08,.54,.22,.14,.14,.22,.34,.22,.54,0,.08,0,.21,0,.4,.15,7.66-1.32,26.36-18.06,34.43-.1,.05-.21,.07-.33,.07ZM23.47,34.8c-.09,7.5,1.46,24.91,16.89,32.58,15.42-7.67,16.98-25.07,16.89-32.58-7.98-.14-14.88-3.85-16.57-4.83-1.77,.96-9.17,4.69-17.2,4.83Z"/>
      <path class="cls-4" d="M39.62,53.13c-.13,0-.26-.05-.35-.15l-5.25-5.25c-.2-.2-.2-.51,0-.71l2.68-2.68c.2-.2,.51-.2,.71,0l1.9,1.9,6.35-6.35c.2-.2,.51-.2,.71,0l2.99,2.99c.2,.2,.2,.51,0,.71l-9.38,9.38c-.1,.1-.23,.15-.35,.15Zm-4.54-5.75l4.54,4.54,8.67-8.67-2.29-2.29-6.35,6.35c-.2,.2-.51,.2-.71,0l-1.9-1.9-1.97,1.97Z"/>
      <g>
        <g>
          <circle class="cls-1" cx="22.5" cy="47.5" r="6"/>
          <path class="cls-4" d="M22.5,54c-.1,0-.19,0-.29,0-1.73-.08-3.34-.82-4.51-2.1-1.17-1.28-1.78-2.94-1.7-4.68,.16-3.58,3.21-6.37,6.78-6.21,1.73,.08,3.34,.82,4.51,2.1,1.17,1.28,1.78,2.94,1.7,4.68-.15,3.48-3.04,6.21-6.49,6.21Zm0-12c-1.38,0-2.69,.51-3.71,1.44-1.08,.99-1.72,2.35-1.78,3.81s.45,2.87,1.44,3.96,2.35,1.72,3.81,1.78c3.02,.13,5.6-2.22,5.74-5.25h0c.06-1.47-.45-2.87-1.44-3.96s-2.35-1.72-3.81-1.78c-.08,0-.17,0-.25,0Z"/>
        </g>
        <path class="cls-4" d="M25.1,57.12c-.21,0-.4-.13-.47-.34l-1.02-3.02c-.09-.26,.05-.55,.31-.63,.26-.09,.55,.05,.63,.31l1.02,3.02c.09,.26-.05,.55-.31,.63-.05,.02-.11,.03-.16,.03Z"/>
        <path class="cls-4" d="M18.15,55.82c-.09,0-.19-.03-.27-.08-.23-.15-.3-.46-.15-.69l1.44-2.22c.15-.23,.46-.3,.69-.15,.23,.15,.3,.46,.15,.69l-1.44,2.22c-.1,.15-.26,.23-.42,.23Z"/>
        <path class="cls-4" d="M28.5,47.13c-.23,0-.43-.15-.49-.38-.06-.27,.1-.54,.37-.6l3.08-.73c.27-.06,.54,.1,.6,.37,.06,.27-.1,.54-.37,.6l-3.08,.73s-.08,.01-.12,.01Z"/>
        <path class="cls-4" d="M30.27,53.35c-.09,0-.18-.02-.27-.08l-2.91-1.83c-.23-.15-.3-.46-.16-.69,.15-.23,.46-.3,.69-.16l2.91,1.83c.23,.15,.3,.46,.16,.69-.1,.15-.26,.23-.42,.23Z"/>
        <path class="cls-4" d="M20.89,42c-.21,0-.41-.14-.48-.35l-1-3.12c-.08-.26,.06-.54,.32-.63,.26-.09,.54,.06,.63,.32l1,3.12c.08,.26-.06,.54-.32,.63-.05,.02-.1,.02-.15,.02Z"/>
        <path class="cls-4" d="M25.91,42.87c-.1,0-.21-.03-.29-.1-.22-.16-.27-.48-.11-.7l1.93-2.64c.16-.22,.48-.27,.7-.11,.22,.16,.27,.48,.11,.7l-1.93,2.64c-.1,.13-.25,.2-.4,.2Z"/>
        <path class="cls-4" d="M17.31,44.44c-.1,0-.2-.03-.28-.09l-2.58-1.79c-.23-.16-.28-.47-.13-.7,.16-.23,.47-.28,.7-.13l2.58,1.79c.23,.16,.28,.47,.13,.7-.1,.14-.25,.21-.41,.21Z"/>
        <path class="cls-4" d="M13.42,49.6c-.25,0-.46-.19-.5-.44-.03-.27,.16-.52,.43-.56l3.08-.38c.27-.04,.52,.16,.56,.43,.03,.27-.16,.52-.43,.56l-3.08,.38s-.04,0-.06,0Z"/>
      </g>
      <path class="cls-3" d="M25,49c-1.1,0-2-.9-2-2s.9-2,2-2,2,.9,2,2-.9,2-2,2Zm0-3c-.55,0-1,.45-1,1s.45,1,1,1,1-.45,1-1-.45-1-1-1Z"/>
      <g>
        <circle class="cls-1" cx="50.5" cy="60.5" r="3.5"/>
        <path class="cls-4" d="M50.5,64.5c-2.21,0-4-1.79-4-4s1.79-4,4-4,4,1.79,4,4-1.79,4-4,4Zm0-7c-1.65,0-3,1.35-3,3s1.35,3,3,3,3-1.35,3-3-1.35-3-3-3Z"/>
      </g>
    </g>
  </g>
</svg>