<?xml version="1.0" encoding="UTF-8"?>
<svg id="Layer_2" data-name="Layer 2" xmlns="http://www.w3.org/2000/svg" viewBox="0 0 79 79">
  <defs>
    <style>
      .cls-1 {
        fill: #fff;
      }

      .cls-2 {
        fill: #fffdfd;
      }

      .cls-3 {
        fill: #f6a87a;
      }

      .cls-4 {
        fill: #5b5b5b;
      }
    </style>
  </defs>
  <g id="Layer_1-2" data-name="Layer 1">
    <g>
      <g>
        <circle class="cls-2" cx="39.5" cy="39.5" r="38.5"/>
        <path class="cls-4" d="M39.5,79C17.72,79,0,61.28,0,39.5S17.72,0,39.5,0s39.5,17.72,39.5,39.5-17.72,39.5-39.5,39.5Zm0-77C18.82,2,2,18.82,2,39.5s16.82,37.5,37.5,37.5,37.5-16.82,37.5-37.5S60.18,2,39.5,2Z"/>
      </g>
      <g>
        <path class="cls-4" d="M56.07,44.34c-.8,0-1.55-.31-2.12-.88l-6.8-6.8c-.2-.2-.2-.51,0-.71s.51-.2,.71,0l6.8,6.8c.76,.76,2.07,.76,2.83,0,.38-.38,.59-.88,.59-1.41s-.21-1.04-.59-1.41l-10.8-10.8c-.2-.2-.2-.51,0-.71s.51-.2,.71,0l10.8,10.8c.57,.57,.88,1.32,.88,2.12s-.31,1.55-.88,2.12c-.57,.57-1.32,.88-2.12,.88Z"/>
        <path class="cls-4" d="M43.27,66.23c-.88,0-1.7-.34-2.32-.96-1.28-1.28-1.28-3.36,0-4.64l5.04-5.04-4.11-4.11c-.87-.87-1.35-2.03-1.35-3.26s.48-2.39,1.35-3.25c1.79-1.79,4.72-1.79,6.51,0l5.56,5.56c.87,.87,1.35,2.03,1.35,3.25s-.48,2.39-1.35,3.25c-.02,.03-2.53,2.52-2.63,2.61-.06,.06-.14,.09-.21,.11l-5.51,5.51c-.62,.62-1.44,.96-2.32,.96Zm1.87-21.62c-.92,0-1.85,.35-2.55,1.05-1.41,1.41-1.41,3.69,0,5.1l4.31,4.31c.11,.11,.16,.26,.14,.41l-.04,.35c-.01,.11-.06,.21-.14,.29l-5.2,5.2c-.89,.89-.89,2.34,0,3.23,.86,.86,2.37,.86,3.23,0l6.73-6.73c.07-.07,.16-.12,.26-.14,.62-.62,1.27-1.27,1.37-1.37,.68-.68,1.06-1.59,1.06-2.55s-.38-1.87-1.06-2.55l-5.56-5.56c-.7-.7-1.63-1.05-2.55-1.05Z"/>
        <path class="cls-4" d="M36.02,66.23c-.88,0-1.7-.34-2.32-.96l-5.51-5.51c-.08-.02-.15-.05-.21-.11-.11-.09-2.61-2.59-2.63-2.61-1.79-1.79-1.79-4.71,0-6.51l5.56-5.56c1.79-1.79,4.72-1.79,6.51,0,.87,.87,1.35,2.03,1.35,3.25s-.48,2.39-1.35,3.26l-4.11,4.11,5.04,5.04c1.28,1.28,1.28,3.36,0,4.64-.62,.62-1.44,.96-2.32,.96Zm-8.6-8.54c.09,.02,.18,.06,.26,.14l6.73,6.73c.86,.86,2.37,.86,3.23,0,.89-.89,.89-2.34,0-3.23l-5.2-5.2c-.08-.08-.13-.18-.14-.29l-.04-.35c-.02-.15,.03-.31,.14-.41l4.31-4.31c1.41-1.41,1.41-3.69,0-5.1-1.41-1.4-3.69-1.4-5.1,0l-5.56,5.56c-1.4,1.41-1.4,3.69,0,5.1,.1,.1,.75,.75,1.37,1.37Z"/>
        <path class="cls-4" d="M47.5,45.54c-.28,0-.5-.22-.5-.5v-8.74c0-.28,.22-.5,.5-.5s.5,.22,.5,.5v8.74c0,.28-.22,.5-.5,.5Z"/>
        <path class="cls-4" d="M31.5,45.54c-.28,0-.5-.22-.5-.5v-8.4c0-.28,.22-.5,.5-.5s.5,.22,.5,.5v8.4c0,.28-.22,.5-.5,.5Z"/>
        <path class="cls-4" d="M23.27,44.34c-.8,0-1.55-.31-2.12-.88-.57-.57-.88-1.32-.88-2.12s.31-1.55,.88-2.12l10.5-10.65c.55-.79,1.54-1.3,2.59-1.3h10.54c.97,0,1.88,.43,2.5,1.18,.18,.21,.14,.53-.07,.7-.21,.18-.53,.14-.7-.07-.43-.52-1.05-.81-1.72-.81h-10.54c-.72,0-1.4,.35-1.82,.94l-10.55,10.71c-.38,.38-.59,.88-.59,1.42s.21,1.04,.59,1.41c.76,.76,2.07,.76,2.83,0l6.46-6.46c.2-.2,.51-.2,.71,0s.2,.51,0,.71l-6.46,6.46c-.57,.57-1.32,.88-2.12,.88Z"/>
        <g>
          <path class="cls-1" d="M36.75,51.77c-2-6-5.5-6.13-5.5-6.13v-3.3h8.25s8.25,0,8.25,0v3.3s-3.5,.12-5.5,6.12h-5.5Z"/>
          <path class="cls-3" d="M42.25,52.27h-5.5c-.22,0-.41-.14-.47-.34-1.85-5.55-4.92-5.78-5.05-5.78-.27-.01-.48-.23-.48-.5v-3.3c0-.28,.22-.5,.5-.5h16.5c.28,0,.5,.22,.5,.5v3.3c0,.27-.21,.49-.48,.5-.13,0-3.19,.23-5.04,5.78-.07,.2-.26,.34-.47,.34Zm-5.14-1h4.79c1.67-4.71,4.28-5.8,5.36-6.05v-2.38h-15.5v2.38c1.07,.25,3.68,1.34,5.36,6.05Z"/>
        </g>
        <g>
          <circle class="cls-1" cx="40" cy="21.27" r="8"/>
          <path class="cls-4" d="M40,29.77c-4.69,0-8.5-3.81-8.5-8.5s3.81-8.5,8.5-8.5,8.5,3.81,8.5,8.5-3.81,8.5-8.5,8.5Zm0-16c-4.14,0-7.5,3.36-7.5,7.5s3.36,7.5,7.5,7.5,7.5-3.36,7.5-7.5-3.36-7.5-7.5-7.5Z"/>
        </g>
        <path class="cls-3" d="M39.83,11.77c5.24,0,9.5,4.26,9.5,9.5,0,2.17-.74,4.26-2.1,5.94,.07,.06,.14,.12,.21,.18,.18,.07,.34,.18,.48,.32l10.81,10.8c.76,.76,1.17,1.76,1.17,2.83s-.42,2.07-1.17,2.83-1.75,1.14-2.83,1.14-2.1-.41-2.83-1.14l-4.24-4.24v1.59c.16,.24,.25,.53,.25,.82v2.06l5.41,5.41c2.18,2.18,2.18,5.74,0,7.92l-.29,.29c-2.1,2.09-2.33,2.32-2.39,2.37-.1,.08-.2,.16-.32,.21l-5.37,5.37c-.81,.81-1.88,1.25-3.03,1.25s-2.22-.45-3.03-1.25c-.23-.23-.43-.48-.6-.75-.17,.27-.37,.52-.6,.75-.77,.77-1.88,1.22-3.03,1.22h0c-1.15,0-2.25-.44-3.03-1.22l-5.37-5.37c-.11-.06-.22-.13-.31-.21-.14-.12-2.66-2.64-2.69-2.66-1.06-1.05-1.64-2.46-1.64-3.96s.58-2.9,1.64-3.96l5.12-5.13v-2.34c0-.29,.09-.58,.25-.82v-1.25l-3.9,3.9c-.72,.72-1.75,1.14-2.83,1.14s-2.1-.41-2.83-1.14c-.76-.76-1.17-1.76-1.17-2.83s.42-2.07,1.17-2.83l10.49-10.64c.29-.43,.76-.82,1.32-1.11-1.15-1.6-1.75-3.49-1.75-5.49,0-5.24,4.26-9.5,9.5-9.5m0-1c-5.79,0-10.5,4.71-10.5,10.5,0,1.85,.47,3.63,1.38,5.2-.28,.23-.52,.49-.72,.76l-10.43,10.58c-.94,.94-1.46,2.2-1.46,3.53s.52,2.59,1.46,3.54c.91,.91,2.2,1.43,3.54,1.43s2.63-.52,3.54-1.43l1.95-1.95v1.34l-4.83,4.83c-1.25,1.25-1.93,2.9-1.93,4.67s.69,3.42,1.93,4.67l.13,.13c2.46,2.45,2.55,2.53,2.61,2.58,.11,.1,.23,.19,.36,.26l5.27,5.27c.96,.96,2.32,1.51,3.74,1.51s2.67-.51,3.63-1.4c.98,.93,2.27,1.44,3.63,1.44s2.74-.55,3.74-1.55l5.27-5.26c.13-.08,.25-.17,.37-.26,.08-.07,.17-.15,2.44-2.42l.29-.29c2.58-2.58,2.58-6.76,0-9.34l-5.12-5.12v-1.39l2.29,2.29c.91,.91,2.2,1.43,3.54,1.43s2.63-.52,3.54-1.43,1.46-2.2,1.46-3.54-.52-2.59-1.46-3.54l-10.81-10.8s0,0,0,0c1.11-1.69,1.71-3.69,1.71-5.72,0-5.79-4.71-10.5-10.5-10.5h0Z"/>
      </g>
    </g>
  </g>
</svg>