<?xml version="1.0" encoding="utf-8"?>
<!-- Generator: Adobe Illustrator 26.0.3, SVG Export Plug-In . SVG Version: 6.00 Build 0)  -->
<svg version="1.1" id="Layer_2_00000111901982213871885760000017926629689299662724_"
	 xmlns="http://www.w3.org/2000/svg" xmlns:xlink="http://www.w3.org/1999/xlink" x="0px" y="0px" viewBox="0 0 98.5 98.5"
	 style="enable-background:new 0 0 98.5 98.5;" xml:space="preserve">
<style type="text/css">
	.st0{fill:#3A5569;}
	.st1{fill:#FFFFFF;}
	.st2{fill:#FFFDFD;}
</style>
<g id="Layer_1-2">
	<g>
		<g>
			<path class="st0" d="M17.8,27.1l29.6-9.5c2.6-0.9,5,1.8,4,4.3L39,51.2c-0.9,2.2-3.8,2.7-5.4,0.9L16.4,32.3
				C14.9,30.6,15.6,27.9,17.8,27.1z"/>
			<path class="st1" d="M42.8,43.1c-0.3,0-0.6-0.1-0.8-0.3l-15.6-18c-0.4-0.4-0.3-1,0.1-1.4c0.4-0.4,1-0.3,1.4,0.1l15.6,18
				c0.4,0.4,0.3,1-0.1,1.4C43.3,43,43.1,43.1,42.8,43.1L42.8,43.1z"/>
			<g>
				<polyline class="st2" points="46,34.6 57,46.4 51.7,52.4 42.8,42.1 				"/>
				<path class="st0" d="M51.7,53.4L51.7,53.4c-0.3,0-0.6-0.1-0.8-0.3l-8.8-10.2c-0.4-0.4-0.3-1,0.1-1.4c0.4-0.4,1-0.3,1.4,0.1
					l8.1,9.4l4-4.5L45.3,35.2c-0.4-0.4-0.3-1,0-1.4c0.4-0.4,1-0.3,1.4,0l11,11.8c0.3,0.4,0.4,1,0,1.3l-5.3,6
					C52.2,53.3,52,53.4,51.7,53.4L51.7,53.4z"/>
			</g>
			<path class="st0" d="M81.8,74.7l-6.4,5.6c-1.3,1.2-3.4,0.9-4.4-0.4L49.7,52.5c-0.9-1.1-0.7-2.7,0.4-3.7l4.5-3.9
				c1.1-0.9,2.7-0.8,3.7,0.2l23.8,25C83.3,71.5,83.2,73.5,81.8,74.7L81.8,74.7z"/>
			<g>
				<path class="st2" d="M27.3,24.1l-0.9-1c-1.1-1.3-1-3.2,0.2-4.5l0,0c1.3-1.3,3.5-1.3,4.7,0.1l2.3,2.5"/>
				<path class="st0" d="M27.3,25.1c-0.3,0-0.6-0.1-0.8-0.4l-0.9-1c-1.5-1.7-1.4-4.2,0.2-5.8c0.8-0.8,2-1.3,3.1-1.2
					c1.2,0,2.3,0.5,3.1,1.4l2.3,2.5c0.4,0.4,0.3,1,0,1.4c-0.4,0.4-1,0.4-1.4,0l-2.3-2.5c-0.4-0.5-1-0.7-1.6-0.7
					c-0.6,0-1.2,0.2-1.7,0.7c-0.8,0.8-0.9,2.2-0.1,3.1l0.9,1c0.4,0.4,0.3,1-0.1,1.4C27.7,25,27.5,25.1,27.3,25.1L27.3,25.1z"/>
			</g>
		</g>
	</g>
</g>
</svg>
