<?xml version="1.0" encoding="utf-8"?>
<!-- Generator: Adobe Illustrator 26.0.3, SVG Export Plug-In . SVG Version: 6.00 Build 0)  -->
<svg version="1.1" id="Layer_2_00000093149855455442656420000005627671026787816593_"
	 xmlns="http://www.w3.org/2000/svg" xmlns:xlink="http://www.w3.org/1999/xlink" x="0px" y="0px" viewBox="0 0 98.5 98.5"
	 style="enable-background:new 0 0 98.5 98.5;" xml:space="preserve">
<style type="text/css">
	.st0{fill:#3A5569;}
</style>
<g id="Layer_1-2">
	<g>
		<path class="st0" d="M64.9,27.9l-4,7.2c-0.5,1-1.4,1.8-2.4,2.4L36.6,49.6c-1.7,1-3.2,2.4-4.2,4l-9.1,14.8
			c-0.5,0.8-0.4,1.7,0.1,2.4l0,0c0.8,1.2,2.5,1.3,3.5,0.2l8.7-10.4c1-1.2,2.2-2.2,3.5-3l8.1-5.7c0.7-0.5,1.6-0.7,2.5-0.5l0.2,0
			l-10.7,7.6c-1.2,0.9-1.7,2.4-1.3,3.8l0,0c0.4,1.3,1.8,2,3,1.5l12.4-4.7l5.6-1.2c1.7-0.4,3.1-1.4,4-2.8l12.2-19.2
			c0.6-1,0.5-2.3-0.4-3.1l-6-5.9C67.6,26.2,65.6,26.4,64.9,27.9L64.9,27.9z"/>
	</g>
</g>
</svg>
