<?xml version="1.0" encoding="UTF-8"?>
<svg id="Layer_2" data-name="Layer 2" xmlns="http://www.w3.org/2000/svg" viewBox="0 0 97.49 97.49">
  <defs>
    <style>
      .cls-1 {
        fill: #fffdfd;
      }

      .cls-2 {
        fill: #3a5569;
      }
    </style>
  </defs>
  <g id="Layer_1-2" data-name="Layer 1">
    <g>
      <g>
        <circle class="cls-2" cx="48.74" cy="48.74" r="48.24"/>
        <path class="cls-2" d="M48.74,97.49C21.87,97.49,0,75.62,0,48.74S21.87,0,48.74,0s48.74,21.87,48.74,48.74-21.87,48.74-48.74,48.74ZM48.74,1C22.42,1,1,22.42,1,48.74s21.42,47.74,47.74,47.74,47.74-21.42,47.74-47.74S75.07,1,48.74,1Z"/>
      </g>
      <path class="cls-1" d="M24.63,72.39s-.1,0-.15,0c-1-.04-1.9-.54-2.48-1.36-.74-1.05-.78-2.44-.1-3.54l9.12-14.83c1.13-1.83,2.72-3.35,4.59-4.39l21.91-12.16c.84-.46,1.52-1.15,1.98-1.99l3.97-7.2c.53-.97,1.46-1.61,2.55-1.77,1.09-.16,2.17,.19,2.96,.95l6.02,5.86c1.18,1.15,1.4,2.99,.52,4.38l-12.15,19.22c-1.04,1.65-2.73,2.84-4.64,3.26l-5.55,1.23-12.38,4.71c-.85,.32-1.81,.28-2.62-.12-.82-.4-1.44-1.13-1.7-2-.26-.85-.25-1.72-.02-2.53-.23,.23-.44,.47-.65,.72l-8.74,10.42c-.62,.73-1.5,1.13-2.44,1.13ZM66.55,27.1c-.08,0-.15,0-.23,.02-.47,.07-.87,.35-1.09,.76h0s-3.97,7.2-3.97,7.2c-.64,1.17-1.6,2.13-2.76,2.77l-21.91,12.16c-1.58,.88-2.92,2.15-3.86,3.69l-9.12,14.84c-.26,.42-.24,.94,.03,1.33,.22,.31,.56,.49,.93,.51,.37,.02,.73-.14,.97-.42l8.74-10.42c1.08-1.28,2.35-2.37,3.79-3.22l8.04-5.7c.94-.66,2.12-.92,3.25-.72l.19,.03c.39,.07,.71,.37,.8,.77s-.07,.8-.39,1.03l-10.66,7.64c-.84,.61-1.21,1.68-.91,2.67,.11,.35,.34,.62,.67,.78,.33,.16,.69,.18,1.03,.05l12.45-4.74s.09-.03,.14-.04l5.62-1.25c1.41-.31,2.61-1.16,3.38-2.38l12.15-19.22c.38-.6,.28-1.39-.22-1.88l-6.02-5.86c-.28-.28-.65-.43-1.04-.43Zm-2.19,.29h0Z"/>
    </g>
  </g>
</svg>