<?xml version="1.0" encoding="UTF-8"?>
<svg id="Layer_2" data-name="Layer 2" xmlns="http://www.w3.org/2000/svg" viewBox="0 0 98.49 98.49">
  <defs>
    <style>
      .cls-1 {
        fill: #fffdfd;
      }

      .cls-2 {
        fill: #3a5569;
      }
    </style>
  </defs>
  <g id="Layer_1-2" data-name="Layer 1">
    <g>
      <g>
        <circle class="cls-1" cx="49.24" cy="49.24" r="48.24"/>
        <path class="cls-2" d="M49.25,98.49C22.09,98.49,0,76.4,0,49.25S22.09,0,49.25,0s49.24,22.09,49.24,49.25-22.09,49.24-49.24,49.24Zm0-96.49C23.19,2,2,23.19,2,49.25s21.19,47.24,47.25,47.24,47.24-21.19,47.24-47.24S75.3,2,49.25,2Z"/>
      </g>
      <g>
        <path class="cls-2" d="M47.41,83.29c-7.96,0-14.43-6.48-14.43-14.43v-9.26c0-.55,.45-1,1-1s1,.45,1,1v9.26c0,6.86,5.58,12.43,12.43,12.43s12.43-5.58,12.43-12.43v-24.07c0-5.16,4.2-9.41,9.36-9.48,.04,0,.08,0,.12,0,2.51,0,4.87,.97,6.66,2.73,1.82,1.79,2.82,4.19,2.82,6.75v3.72c0,.55-.45,1-1,1s-1-.45-1-1v-3.72c0-2.02-.79-3.91-2.22-5.32-1.43-1.42-3.3-2.22-5.35-2.16-4.07,.05-7.38,3.41-7.38,7.48v24.07c0,7.96-6.48,14.43-14.43,14.43Z"/>
        <g>
          <path class="cls-2" d="M19.67,42.46c-.55,0-1-.45-1-1v-14.81c0-2.96,2.12-5.36,4.72-5.36,.55,0,1,.45,1,1s-.45,1-1,1c-1.5,0-2.72,1.51-2.72,3.36v14.81c0,.55-.45,1-1,1Z"/>
          <circle class="cls-2" cx="26.93" cy="21.75" r="3.55"/>
        </g>
        <g>
          <path class="cls-2" d="M47.16,42.46c-.55,0-1-.45-1-1v-14.81c0-1.85-1.22-3.36-2.72-3.36-.55,0-1-.45-1-1s.45-1,1-1c2.6,0,4.72,2.41,4.72,5.36v14.81c0,.55-.45,1-1,1Z"/>
          <circle class="cls-2" cx="39.89" cy="21.75" r="3.55"/>
        </g>
        <circle class="cls-2" cx="77.8" cy="57.22" r="8.43"/>
        <g>
          <circle class="cls-2" cx="77.8" cy="57.22" r="3.03"/>
          <path class="cls-1" d="M77.8,61.24c-2.22,0-4.03-1.81-4.03-4.03s1.81-4.03,4.03-4.03,4.03,1.81,4.03,4.03-1.81,4.03-4.03,4.03Zm0-6.05c-1.12,0-2.03,.91-2.03,2.03s.91,2.03,2.03,2.03,2.03-.91,2.03-2.03-.91-2.03-2.03-2.03Z"/>
        </g>
        <path class="cls-2" d="M48.85,39.96h-3c-1.1,0-2,.9-2,2v2.62c0,4.15-4.71,7.66-10.29,7.66s-10.29-3.51-10.29-7.66v-2.62c0-1.1-.9-2-2-2h-3c-1.1,0-2,.9-2,2v2.62c0,6.87,5.61,12.63,13.14,14.22v5.73c0,.82,.67,1.49,1.49,1.49h5.33c.82,0,1.49-.67,1.49-1.49v-5.73c7.53-1.58,13.14-7.35,13.14-14.22v-2.62c0-1.1-.9-2-2-2Z"/>
      </g>
    </g>
  </g>
</svg>