<?xml version="1.0" encoding="UTF-8"?>
<svg id="Layer_2" data-name="Layer 2" xmlns="http://www.w3.org/2000/svg" viewBox="0 0 97.49 97.49">
  <defs>
    <style>
      .cls-1 {
        fill: #fff;
      }

      .cls-2 {
        fill: #fffdfd;
      }

      .cls-3 {
        fill: #3a5569;
      }
    </style>
  </defs>
  <g id="Layer_1-2" data-name="Layer 1">
    <g>
      <g>
        <circle class="cls-3" cx="48.74" cy="48.74" r="48.24"/>
        <path class="cls-3" d="M48.74,97.49C21.87,97.49,0,75.62,0,48.75S21.87,0,48.74,0s48.75,21.87,48.75,48.75-21.87,48.74-48.75,48.74ZM48.74,1C22.42,1,1,22.42,1,48.75s21.42,47.74,47.74,47.74,47.75-21.42,47.75-47.74S75.07,1,48.74,1Z"/>
      </g>
      <g>
        <path class="cls-1" d="M46.91,82.79c-7.96,0-14.43-6.48-14.43-14.43v-9.26c0-.55,.45-1,1-1s1,.45,1,1v9.26c0,6.86,5.58,12.43,12.43,12.43s12.43-5.58,12.43-12.43v-24.07c0-5.16,4.2-9.41,9.36-9.48,.04,0,.08,0,.12,0,2.51,0,4.87,.97,6.66,2.73,1.82,1.79,2.82,4.19,2.82,6.74v3.72c0,.55-.45,1-1,1s-1-.45-1-1v-3.72c0-2.02-.79-3.91-2.22-5.32-1.43-1.42-3.3-2.2-5.35-2.16-4.07,.05-7.38,3.41-7.38,7.48v24.07c0,7.96-6.48,14.43-14.43,14.43Z"/>
        <g>
          <path class="cls-1" d="M19.17,41.96c-.55,0-1-.45-1-1v-14.81c0-2.96,2.12-5.36,4.72-5.36,.55,0,1,.45,1,1s-.45,1-1,1c-1.5,0-2.72,1.51-2.72,3.36v14.81c0,.55-.45,1-1,1Z"/>
          <circle class="cls-1" cx="26.43" cy="21.25" r="3.55"/>
        </g>
        <g>
          <path class="cls-1" d="M46.65,41.96c-.55,0-1-.45-1-1v-14.81c0-1.85-1.22-3.36-2.72-3.36-.55,0-1-.45-1-1s.45-1,1-1c2.6,0,4.72,2.41,4.72,5.36v14.81c0,.55-.45,1-1,1Z"/>
          <circle class="cls-1" cx="39.39" cy="21.25" r="3.55"/>
        </g>
        <g>
          <circle class="cls-3" cx="77.3" cy="56.72" r="8.43"/>
          <path class="cls-2" d="M77.3,66.15c-5.2,0-9.43-4.23-9.43-9.43s4.23-9.43,9.43-9.43,9.43,4.23,9.43,9.43-4.23,9.43-9.43,9.43Zm0-16.86c-4.1,0-7.43,3.33-7.43,7.43s3.33,7.43,7.43,7.43,7.43-3.33,7.43-7.43-3.33-7.43-7.43-7.43Z"/>
        </g>
        <g>
          <circle class="cls-2" cx="77.3" cy="56.72" r="3.03"/>
          <path class="cls-3" d="M77.3,60.74c-2.22,0-4.03-1.81-4.03-4.03s1.81-4.03,4.03-4.03,4.03,1.81,4.03,4.03-1.81,4.03-4.03,4.03Zm0-6.05c-1.12,0-2.03,.91-2.03,2.03s.91,2.03,2.03,2.03,2.03-.91,2.03-2.03-.91-2.03-2.03-2.03Z"/>
        </g>
        <path class="cls-2" d="M48.35,39.46h-3c-1.1,0-2,.9-2,2v2.62c0,4.15-4.71,7.66-10.29,7.66s-10.29-3.51-10.29-7.66v-2.62c0-1.1-.9-2-2-2h-3c-1.1,0-2,.9-2,2v2.62c0,6.87,5.61,12.63,13.14,14.22v5.73c0,.82,.67,1.49,1.49,1.49h5.33c.82,0,1.49-.67,1.49-1.49v-5.73c7.53-1.58,13.14-7.35,13.14-14.22v-2.62c0-1.1-.9-2-2-2Z"/>
      </g>
    </g>
  </g>
</svg>